<svg xmlns="http://www.w3.org/2000/svg" xmlns:xlink="http://www.w3.org/1999/xlink" width="1000" height="1000" viewBox="0 0 1000 1000">
  <defs>
    <filter id="O" x="141" y="47" width="669" height="1069" filterUnits="userSpaceOnUse">
      <feOffset dy="3" input="SourceAlpha"/>
      <feGaussianBlur stdDeviation="3" result="blur"/>
      <feFlood flood-opacity="0.161"/>
      <feComposite operator="in" in2="blur"/>
      <feComposite in="SourceGraphic"/>
    </filter>
    <clipPath id="clip-icon">
      <rect width="1000" height="1000"/>
    </clipPath>
  </defs>
  <g id="icon" clip-path="url(#clip-icon)">
    <g id="_1837436" data-name="1837436" transform="translate(211.5 1054.312)">
      <path id="Path_1" data-name="Path 1" d="M399.883-608.2c-32.007,3.856-62.356,19.362-96.063,49.089-8.209,7.214-13.848,12.562-27.239,25.871-9.536,9.494-10.945,10.7-11.65,10.323-.456-.249-4.146-3.856-8.251-8.043-47.43-48.549-78.193-68.989-113.807-75.54a121.189,121.189,0,0,0-69.2,7.712C36.985-583.2,10.119-550.407,2.614-512.015.915-503.433.5-498.831.5-488.59a126.89,126.89,0,0,0,7.3,44.155c14.013,39.968,47.472,67.455,89.719,73.757,26.286,3.939,55.432-1.078,81.137-13.889A179.94,179.94,0,0,0,207.8-402.851c13.309-9.909,23.052-18.657,43.989-39.387,7.3-7.256,13.557-13.185,13.848-13.185.332,0,3.192,2.736,6.385,6.053,7.131,7.421,24.544,24.212,31.924,30.8,34,30.307,59.785,43.74,92.29,48.218a142.71,142.71,0,0,0,14.511.5c8.831,0,11.567-.166,16.584-.953,26.949-4.146,49.959-15.713,68.782-34.495a119.384,119.384,0,0,0,34.122-70.44c.788-6.426.663-23.342-.249-29.851-3.234-23.259-11.4-44.237-23.549-60.407a118.593,118.593,0,0,0-17.62-18.035c-15.091-12.023-34.7-20.149-57.132-23.632C424.551-608.741,407.055-609.072,399.883-608.2ZM137.4-558.491c13.931,2.944,28.027,9.66,41.874,19.942,4.934,3.648,12.314,9.7,17.123,14.055,6.053,5.513,36.485,35.24,36.485,35.655,0,.664-26.534,26.908-32.961,32.671-20.4,18.16-39.262,29.644-57.007,34.785-8.375,2.4-13.309,3.068-23.425,3.068-7.877,0-9.743-.124-13.848-.953-24.461-4.934-42.372-20.9-50.166-44.652-6.634-20.274-5.39-39.511,3.731-57.422,10.448-20.564,29.271-34.163,52.488-37.935a71.6,71.6,0,0,1,12.148-.415C130.974-559.569,133.172-559.362,137.4-558.491Zm284.539-.788a65.222,65.222,0,0,1,34.868,15.672c18.2,15.92,26.908,44.072,21.435,69.528a71.363,71.363,0,0,1-50.954,53.69,69.1,69.1,0,0,1-18.823,2.281c-12.853,0-23.176-2.571-36.07-8.914-13.557-6.633-26.617-16.211-42.994-31.551-10.282-9.619-30.8-29.81-30.929-30.432-.124-.663,19.32-20.523,27.7-28.234,28.276-26.119,50.622-38.682,74.628-42.04A100.129,100.129,0,0,1,421.939-559.279Z" transform="translate(45.106 -93.942)" fill="none" stroke="#c1121f" stroke-width="14"/>
    </g>
    <g transform="matrix(1, 0, 0, 1, 0, 0)" filter="url(#O)">
      <text id="O-2" data-name="O" transform="translate(150 818)" fill="#fff" font-size="1000" font-family="Tangerine-Regular, Tangerine"><tspan x="0" y="0">O</tspan></text>
    </g>
  </g>
</svg>
