<?xml version="1.0" standalone="no"?>
<!DOCTYPE svg PUBLIC "-//W3C//DTD SVG 1.1//EN" "http://www.w3.org/Graphics/SVG/1.1/DTD/svg11.dtd" >
<svg xmlns="http://www.w3.org/2000/svg" xmlns:xlink="http://www.w3.org/1999/xlink" version="1.1">
<metadata>
Created by FontForge 20170731 at Thu Mar 21 16:28:46 2019
 By Aleksey,,,
Copyright \(c\) 2019 by Fontastica. All rights reserved.
</metadata>
<defs>
<font id="Vector-Regular" horiz-adv-x="390" >
  <font-face 
    font-family="Vector"
    font-weight="400"
    font-stretch="normal"
    units-per-em="1000"
    panose-1="0 0 5 0 0 0 0 0 0 0"
    ascent="800"
    descent="-200"
    x-height="362"
    cap-height="705"
    bbox="10 -360 780 710.154"
    underline-thickness="50"
    underline-position="-200"
    unicode-range="U+000D-2122"
  />
<missing-glyph horiz-adv-x="547" 
d="M50 0v704h447v-704h-447zM431 657h-315l157 -259zM450 594l-148 -242l148 -244v486zM99 110l146 242l-146 240v-482zM431 47l-157 258l-157 -258h314z" />
    <glyph glyph-name=".notdef" horiz-adv-x="547" 
d="M50 0v704h447v-704h-447zM431 657h-315l157 -259zM450 594l-148 -242l148 -244v486zM99 110l146 242l-146 240v-482zM431 47l-157 258l-157 -258h314z" />
    <glyph glyph-name=".null" horiz-adv-x="0" 
 />
    <glyph glyph-name="nonmarkingreturn" horiz-adv-x="333" 
 />
    <glyph glyph-name="CR" unicode="&#xd;" horiz-adv-x="0" 
 />
    <glyph glyph-name="space" unicode=" " horiz-adv-x="378" 
 />
    <glyph glyph-name="exclam" unicode="!" horiz-adv-x="116" 
d="M40 118q-1 8 -1 26v136q0 67 0.5 201.5t0.5 201.5q0 21 21 21q9 0 15 -6.5t6 -14.5v-563q0 -9 -6 -15t-15 -6q-17 0 -21 19zM60 -6q-12 0 -19.5 8.5t-7.5 19.5t8 18.5t19 7.5q12 0 20 -7t8 -19t-8 -20t-20 -8z" />
    <glyph glyph-name="quotedbl" unicode="&#x22;" horiz-adv-x="197" 
d="M12 626l5 5q13 13 15 22q-11 8 -11 24q0 11 7.5 18.5t19.5 7.5q28 0 28 -36q0 -15 -9 -35q-2 -5 -9 -15.5t-8 -12.5l-4 -7zM93 626l5 5q13 13 15 22q-11 8 -11 24q0 11 7.5 18.5t19.5 7.5q28 0 28 -36q0 -15 -9 -35q-2 -5 -9 -15.5t-8 -12.5l-4 -7z" />
    <glyph glyph-name="numbersign" unicode="#" horiz-adv-x="353" 
d="M216 106q-2 -8 -5.5 -24.5t-3.5 -18.5q-5 -30 -12 -49q-7 -13 -18 -13q-23 0 -23 20q0 9 11 49q1 7 9 37q-5 0 -15 0.5t-16 0.5l-17 -76q-4 -16 -20 -16q-8 0 -14.5 5.5t-6.5 13.5q0 1 2 7q1 3 6 28.5t9 38.5h-26q-31 0 -46 2q-19 3 -19 21q0 8 6 14t15 6q25 0 79 -2
l6 28q-85 3 -86 3q-19 2 -19 20q0 20 21 20q30 0 94 -2l21 89q4 15 20 15q8 0 14.5 -5.5t6.5 -13.5q0 -4 -11 -50q-1 -6 -3 -13t-3.5 -14t-2.5 -9q10 -1 31 -1l6 36q5 25 12 42q4 15 18 15q9 0 15.5 -6t6.5 -15q0 -10 -8 -40l-8 -33l70 -3q19 0 19 -19q0 -21 -21 -21
q-39 0 -78 3q-4 -20 -7 -30h7h36q29 0 43 -2q19 -2 19 -20q0 -21 -21 -21zM190 176q-10 1 -31 1l-6 -29h10h8h12q2 7 7 28z" />
    <glyph glyph-name="dollar" unicode="$" horiz-adv-x="350" 
d="M334 237q0 -56 -41 -92.5t-98 -42.5l1 -80q0 -9 -6 -15t-15 -6q-21 0 -21 21l-1 81q-60 8 -96.5 46t-36.5 97q0 9 3 18l2 6l39 -8v-6q-2 -14 -2 -19q0 -36 26.5 -61t64.5 -32q0 32 -0.5 95.5t-0.5 94.5q-54 9 -92 45t-38 89q0 52 37.5 87.5t90.5 45.5v76q0 20 20 20
q19 0 21 -20v-74q78 -6 123 -66l8 -11l-33 -24l-4 6q-30 48 -93 55q1 -64 1 -192q56 -4 98.5 -41.5t42.5 -92.5zM150 560q-37 -7 -61.5 -32t-24.5 -60q0 -34 25.5 -59.5t62.5 -33.5q0 31 -1 92.5t-1 92.5zM194 142q41 6 70.5 31.5t29.5 63.5q0 37 -30 63t-70 31v-189z" />
    <glyph glyph-name="percent" unicode="%" horiz-adv-x="401" 
d="M391 679q0 -10 -77 -162q-94 -187 -198 -401q-26 -50 -38 -75q-2 -3 -7 -16q-12 -28 -27 -28q-9 0 -15 6.5t-6 15.5q0 7 134 275q25 51 62.5 127t57 115.5t22.5 45.5q14 29 25 54q16 34 28 53q8 11 18 11q8 0 14.5 -6.5t6.5 -14.5zM153 688q26 0 41.5 -19t15.5 -44
t-15.5 -44.5t-41.5 -19.5t-42 19.5t-16 44.5q0 24 16.5 43.5t41.5 19.5zM153 599q8 0 13.5 7.5t5.5 18.5q0 10 -5.5 17t-13.5 7t-13.5 -7t-5.5 -17q0 -11 5.5 -18.5t13.5 -7.5zM251 -3q-25 0 -41 20t-16 44q0 25 16 44t41 19q26 0 42.5 -19t16.5 -44t-16.5 -44.5
t-42.5 -19.5zM251 85q-8 0 -13.5 -7t-5.5 -17t5.5 -17t13.5 -7q9 0 14.5 7t5.5 17t-5.5 17t-14.5 7z" />
    <glyph glyph-name="ampersand" unicode="&#x26;" horiz-adv-x="473" 
d="M432 308q11 -13 18.5 -40t7.5 -48q0 -62 -44 -116l20 -33q2 -4 6.5 -11.5t5.5 -10.5q1 -1 1.5 -2.5t1.5 -3t1 -2.5l2 -4q0 -23 -22 -23q-6 0 -16 10q-10 12 -30 47q-74 -69 -174 -69q-81 0 -139 60.5t-58 140.5q0 58 56 134q1 2 93 107q-31 45 -46 78t-15 76
q0 38 28.5 73t67.5 35q45 0 72.5 -41t27.5 -85q0 -57 -30 -87l-53 -55q34 -56 95 -159t82 -137q27 43 27 79q0 14 -7.5 37t-15.5 31l-2 3q-4 4 -4 13t6.5 14.5t15.5 5.5q8 0 11 -4l5 -5l3 -3l1 -2zM212 494q16 16 23.5 25.5t14 24.5t6.5 33q0 32 -17 59t-45 27
q-19 0 -35.5 -23.5t-16.5 -45.5q0 -33 17 -67q2 -4 32 -53q14 14 21 20zM184 408q-130 -136 -130 -203q0 -62 45.5 -112t107.5 -50q89 0 156 65q-144 245 -179 300z" />
    <glyph glyph-name="quotesingle" unicode="'" horiz-adv-x="100" 
d="M20 267l3 5q11 14 15 25q-11 7 -11 22q0 27 26 27q29 0 29 -36q0 -17 -9 -35q-2 -5 -9 -15.5t-8 -12.5l-5 -7z" />
    <glyph glyph-name="parenleft" unicode="(" horiz-adv-x="230" 
d="M207 659h-6q-38 0 -66.5 -35t-42.5 -88t-20.5 -100t-6.5 -86q0 -37 6 -83t19.5 -100.5t42.5 -90.5t68 -36h6v-41h-12q-37 0 -71 29q-53 46 -77 139.5t-24 182.5q0 34 4 74.5t16 91t30.5 90.5t52 67.5t75.5 27.5h6v-42z" />
    <glyph glyph-name="parenright" unicode=")" horiz-adv-x="227" 
d="M30 35h14q50 0 88 86q42 92 42 227q0 39 -6.5 86.5t-20.5 101t-43 89t-67 35.5h-7v42h14q35 0 64.5 -24t48.5 -62t30 -72t16 -65q11 -59 11 -131t-11 -132q-5 -31 -16 -65t-30 -71.5t-48.5 -61.5t-64.5 -24h-14v41z" />
    <glyph glyph-name="asterisk" unicode="*" horiz-adv-x="343" 
d="M249 503q16 -16 27 -28q2 -3 7.5 -8.5t7.5 -8.5q1 -1 2.5 -3.5t2.5 -3.5q0 -1 1.5 -3.5t1.5 -4.5q0 -19 -27 -19q-2 2 -4 3q-3 2 -10 9q-28 25 -65 65v-77q0 -10 -1 -15q-2 -24 -21 -24q-21 0 -21 20q0 17 0.5 50t0.5 49q-7 -6 -21 -20q-4 -3 -22 -21q-7 -8 -23 -22
q-9 -6 -13 -6q-9 0 -15.5 6t-6.5 15q0 8 13 21l27 27q5 5 35 32q-31 1 -91 1q-9 0 -15 6t-6 14q0 9 6 15t15 6q28 0 84 -2q-16 16 -24 25l-21 22q-6 8 -7 9q-3 4 -3 9q0 8 6.5 13.5t13.5 5.5q6 0 7 -1q4 -2 6 -2q4 -3 27 -25.5t29 -30.5q0 53 3 80q2 19 21 19q9 0 14 -6.5
t5 -14.5v-76q16 16 26 25q25 25 44 38q28 0 28 -19q0 -5 -4 -9q-2 -3 -8 -9q-24 -27 -55 -53q4 -1 12 -1q4 0 11.5 0.5t11.5 0.5q35 0 52 -2q19 -3 19 -21q0 -20 -21 -20q-62 0 -93 1z" />
    <glyph glyph-name="plus" unicode="+" horiz-adv-x="360" 
d="M201 323q-1 -43 -1 -129q0 -20 -20 -20q-21 0 -21 20q0 86 2 130q-40 1 -119 1q-9 0 -15 6t-6 15t6 15t15 6q39 0 119 -2v79v11q0 32 23 32q8 0 14 -5t6 -14q0 -70 -1 -104h98q40 0 40 -22q0 -21 -21 -21q-39 0 -119 2z" />
    <glyph glyph-name="comma" unicode="," horiz-adv-x="108" 
d="M26 -26l5 5q12 11 15 22q-11 8 -11 24q0 11 7.5 18.5t19.5 7.5q28 0 28 -36q0 -15 -9 -35q-2 -5 -9 -15.5t-8 -12.5l-4 -7z" />
    <glyph glyph-name="hyphen" unicode="-" horiz-adv-x="360" 
d="M185 326q-44 1 -132 1q-29 0 -29 21q0 20 21 20q44 0 132.5 -1.5t132.5 -1.5q11 0 16.5 -0.5t11.5 -5.5t6 -15q0 -21 -21 -21q-23 0 -69 1.5t-69 1.5z" />
    <glyph glyph-name="period" unicode="." horiz-adv-x="102" 
d="M53 3q-27 0 -27 26q0 27 27 27q12 0 20 -7.5t8 -19.5q0 -11 -8.5 -18.5t-19.5 -7.5z" />
    <glyph glyph-name="slash" unicode="/" horiz-adv-x="415" 
d="M321 527q-16 -33 -35 -70.5t-32 -63t-15 -28.5q-160 -320 -175 -349q-6 -12 -17 -12q-9 0 -15.5 6t-6.5 15q0 4 74 154q79 159 82 165l174 345q5 11 17 11q9 0 15.5 -6t6.5 -15q0 -6 -73 -152z" />
    <glyph glyph-name="zero" unicode="0" horiz-adv-x="524" 
d="M268 -4q-51 0 -95 29q-73 46 -109 139t-36 190q0 55 14.5 114.5t42 115t75.5 91t108 35.5q59 0 107 -35.5t76 -90.5t42.5 -115t14.5 -115q0 -56 -14.5 -116t-42.5 -115.5t-76 -91t-107 -35.5zM342 647q-34 23 -74 23t-74 -23q-62 -41 -93 -124t-31 -169t31 -169.5
t92 -123.5q37 -24 75 -24q39 0 74 24q62 40 93 123.5t31 169.5t-31 169t-93 124z" />
    <glyph glyph-name="one" unicode="1" horiz-adv-x="101" 
d="M32 689q0 19 20 19q8 0 14.5 -5t6.5 -14l-4 -673q0 -9 -6 -15t-15 -6t-15 6t-6 15z" />
    <glyph glyph-name="two" unicode="2" horiz-adv-x="517" 
d="M483 38q9 0 15 -6t6 -14q0 -9 -6 -15t-15 -6h-436q-9 0 -15 6.5t-6 14.5v243q0 6 4.5 13.5t12.5 7.5q3 0 5 -1q10 1 62 1h21h93q73 0 120.5 57.5t47.5 132.5q0 74 -47.5 131.5t-120.5 57.5q-54 0 -95 -34t-59 -86l-2 -8l-39 15l2 6q19 63 73 106t120 43q91 0 150.5 -70.5
t59.5 -160.5t-59 -160t-150 -70h-157v-204h415z" />
    <glyph glyph-name="three" unicode="3" horiz-adv-x="454" 
d="M192 331h-1v40h7q53 0 85 10q49 15 82.5 55.5t33.5 88.5q0 62 -47.5 102t-112.5 40q-62 0 -108.5 -33.5t-63.5 -90.5l-4 -14l-39 9l4 14q20 72 77.5 114t133.5 42q81 0 141 -52t60 -131q0 -57 -34 -103.5t-88 -70.5q54 -24 88 -70.5t34 -103.5q0 -79 -60 -131t-141 -52
q-75 0 -133 42.5t-78 112.5l-4 14l39 9l2 -6q16 -61 63 -96t111 -35q65 0 112.5 39.5t47.5 102.5q0 60 -48 104t-109 48q-10 1 -31 1h-19v1z" />
    <glyph glyph-name="four" unicode="4" horiz-adv-x="593" 
d="M550 339q20 0 20 -20q0 -19 -20 -19h-164l-2 -276q0 -21 -21 -21q-9 0 -15 6t-6 15l2 276l-295 2q-21 0 -21 19q0 9 6 13q0 1 2 3l313 358q1 1 3 5v1l1 1q5 6 14 6t15 -6.5t6 -14.5l-2 -347zM95 341l249 -1l2 290z" />
    <glyph glyph-name="five" unicode="5" horiz-adv-x="502" 
d="M24 157l36 17l3 -6q25 -56 73 -91.5t107 -35.5h14q1 0 2.5 0.5t2.5 0.5q83 14 132 81.5t49 154.5q0 97 -57 174t-150 77q-50 0 -95 -27.5t-67 -72.5l-2 -4l-5 1q-1 0 -3 -1l-1 -1h-2q-24 0 -24 20l4 242q0 21 21 21l389 -1q9 0 14.5 -6.5t5.5 -14.5t-5.5 -14.5
t-14.5 -6.5l-370 1l-2 -162q68 68 157 68q74 0 132.5 -45.5t87.5 -111.5t29 -135q0 -107 -67.5 -193t-174.5 -86q-70 0 -128 42.5t-88 108.5z" />
    <glyph glyph-name="six" unicode="6" horiz-adv-x="504" 
d="M26 333q0 93 40 178t118 141.5t176 56.5q48 0 99 -16l7 -2l-15 -41l-8 5q-8 5 -37 9.5t-46 4.5q-127 0 -209.5 -102.5t-82.5 -232.5q0 -52 13 -97q12 73 70 122t134 49q84 0 146 -59t62 -142q0 -84 -60.5 -144t-146.5 -60q-77 0 -138.5 53.5t-91.5 128t-30 148.5z
M119 202q0 -64 50.5 -111.5t116.5 -47.5q69 0 117 48.5t48 116.5q0 66 -49.5 112.5t-116.5 46.5q-69 0 -117.5 -48.5t-48.5 -116.5z" />
    <glyph glyph-name="seven" unicode="7" horiz-adv-x="460" 
d="M444 685q-10 -40 -21 -73q-13 -46 -38 -129.5t-35 -117.5l-104 -351q-5 -15 -20 -15q-20 0 -20 19v2q0 2 1 3q0 3 2 9q7 28 18 62q30 105 71 244l99 330l-339 2q-9 0 -15 6t-6 15t6 14.5t15 4.5l366 -1q20 -1 20 -24z" />
    <glyph glyph-name="eight" unicode="8" horiz-adv-x="467" 
d="M235 -1q-87 0 -151.5 62t-64.5 148q0 65 38 120t100 78q-36 21 -57.5 56.5t-21.5 77.5q0 66 47 112.5t114 46.5t114 -46.5t47 -112.5q0 -43 -22 -79.5t-60 -56.5q60 -24 96.5 -78t36.5 -118q0 -87 -64 -148.5t-152 -61.5zM358 541q0 49 -34.5 83t-84.5 34t-85 -34
t-35 -83t35 -82.5t85 -33.5q49 0 84 34t35 82zM235 380q-72 0 -123 -50t-51 -121q0 -70 51 -119.5t123 -49.5q73 0 124.5 49t51.5 120q0 72 -51.5 121.5t-124.5 49.5z" />
    <glyph glyph-name="nine" unicode="9" horiz-adv-x="507" 
d="M235 297q-84 0 -145.5 59t-61.5 142q0 85 60 144.5t146 59.5q59 0 109 -31t80.5 -80t47.5 -105t17 -109q0 -94 -41.5 -180t-121 -142.5t-177.5 -56.5q-25 0 -59.5 6.5t-52.5 17.5l-5 3l15 36l6 -2q60 -20 96 -20q86 0 156 50t106.5 126.5t36.5 160.5q0 41 -9 80
q-14 -68 -72 -113.5t-131 -45.5zM234 660q-68 0 -116 -47t-48 -114t48.5 -114.5t116.5 -47.5t117 47.5t49 113.5q0 67 -49 114.5t-118 47.5z" />
    <glyph glyph-name="colon" unicode=":" horiz-adv-x="116" 
d="M61 508q12 0 20 -8t8 -19q0 -12 -8.5 -19.5t-19.5 -7.5t-19 8t-8 19t7.5 19t19.5 8zM63 -3q-12 0 -19.5 8t-7.5 20q0 11 7.5 18.5t19.5 7.5t20 -7t8 -19t-8 -20t-20 -8z" />
    <glyph glyph-name="semicolon" unicode=";" horiz-adv-x="113" 
d="M63 504q11 0 19.5 -7.5t8.5 -18.5q0 -12 -8 -20t-20 -8q-11 0 -18 8.5t-7 19.5q0 10 7 18t18 8zM30 -28l4 6q12 14 14 23q-10 7 -10 23q0 11 6.5 18.5t18.5 7.5q29 0 29 -36q0 -20 -8 -34q-4 -8 -18 -28l-4 -7z" />
    <glyph glyph-name="less" unicode="&#x3c;" horiz-adv-x="325" 
d="M254 152q-7 6 -16 11q-26 18 -78 52q-123 85 -127 88q-10 8 -10 17q0 12 21 28q4 3 9.5 6.5t11 6t6.5 3.5l160 110q13 10 23 17q10 6 14 9q8 4 14 4q8 0 14.5 -6t6.5 -14q0 -6 -3 -11l-6 -6q-41 -30 -122.5 -85t-91.5 -62q28 -18 121.5 -81t98.5 -70q3 -9 3 -11
q0 -8 -6 -14t-15 -6q-12 0 -28 14z" />
    <glyph glyph-name="equal" unicode="=" horiz-adv-x="377" 
d="M326 392q21 0 21 -21q0 -19 -21 -19q-46 0 -138.5 2t-138.5 2q-21 0 -21 19q0 21 21 21q46 0 138.5 -2t138.5 -2zM49 286q-21 0 -21 21q0 19 21 19q44 0 132 -1t131 -1q35 0 35 -22q0 -20 -21 -20q-46 0 -138.5 2t-138.5 2z" />
    <glyph glyph-name="greater" unicode="&#x3e;" horiz-adv-x="335" 
d="M29 154q0 10 10 18l214 145q-83 55 -113 76q-101 70 -105 74q-6 4 -6 13q0 8 6.5 14t14.5 6q7 0 11 -3q7 -4 19 -12.5t16 -10.5q56 -40 84 -59l80 -54q6 -4 20 -12q7 -5 19 -15q10 -8 10 -18q0 -9 -8 -14l-3 -2l-128 -88l-60 -42q-26 -18 -37 -25q-2 -1 -6.5 -4t-6.5 -4
q-1 0 -2.5 -0.5t-2.5 -1.5q-2 -1 -5 -1q-8 0 -14.5 6t-6.5 14z" />
    <glyph glyph-name="question" unicode="?" horiz-adv-x="463" 
d="M233 117q0 -33 -23 -33q-19 0 -19 19q0 35 2 103v63q0 40 4 61l1 7l7 -1q14 -2 22 -2q71 0 123 50.5t52 119.5q0 65 -47 109.5t-114 44.5q-60 0 -109 -38t-62 -96l-2 -13l-42 6l4 15q20 74 77 121t134 47q83 0 142.5 -56.5t59.5 -138.5q0 -85 -60.5 -145t-146.5 -65
q-3 -44 -3 -178zM208 0q-11 0 -18.5 7.5t-7.5 19.5q0 11 7.5 18t18.5 7t19.5 -7t8.5 -18q0 -12 -8 -19.5t-20 -7.5z" />
    <glyph glyph-name="at" unicode="@" horiz-adv-x="404" 
d="M354 79l-4 -5l-2 -3q-17 -29 -61.5 -48.5t-82.5 -19.5q-75 0 -128 53t-53 127t53 127t128 53q73 0 128 -51.5t55 -122.5q0 -30 -14.5 -56t-39.5 -38zM301 129q19 1 31.5 18.5t12.5 38.5q0 56 -42 95.5t-99 39.5q-58 0 -98.5 -40.5t-40.5 -97.5t41 -98.5t98 -41.5
q58 0 104 46q-2 0 -5 -0.5t-4 -0.5q-29 0 -37 15q-26 -23 -62 -23q-44 0 -73.5 30.5t-29.5 73.5q0 42 30 73.5t73 31.5q33 0 63 -22q5 11 19 11q21 0 21 -20q0 -43 -2 -129zM200 249q-26 0 -43.5 -19t-17.5 -46q0 -26 17.5 -45t43.5 -19q24 0 41 19t17 45t-16.5 45.5
t-41.5 19.5z" />
    <glyph glyph-name="A" unicode="A" horiz-adv-x="740" 
d="M521 318h-317q-143 -287 -154 -307q-7 -12 -18 -12q-8 0 -14.5 6.5t-6.5 14.5q0 6 60.5 128t75.5 150l153 308q4 8 19.5 39.5t24.5 47.5q6 12 18 12t18 -12q9 -16 24.5 -47.5t19.5 -39.5l153 -308q16 -29 76 -151t60 -127q0 -9 -7 -14.5t-15 -5.5q-12 0 -17 11zM500 360
q-18 37 -65 131.5t-73 146.5q-47 -92 -139 -278h277z" />
    <glyph glyph-name="B" unicode="B" horiz-adv-x="529" 
d="M277 -2q-19 0 -57.5 1t-57.5 1t-56.5 -0.5t-56.5 -0.5q-21 0 -21 21q0 186 4 562l1 104q0 23 23 23q37 0 111.5 -0.5t112.5 -0.5q89 -2 160.5 -53.5t71.5 -136.5q0 -58 -37.5 -101.5t-95.5 -66.5q54 -24 88 -67t34 -99q0 -81 -70.5 -133.5t-153.5 -52.5zM281 39
q65 0 121.5 42t56.5 103q0 65 -58.5 106.5t-129.5 41.5h-137q-9 0 -15 6t-6 15q0 8 6 14t15 6h160q64 0 120 42.5t56 102.5q0 69 -59 108t-131 39l-205 3q-2 -119 -3 -338t-2 -289q140 -2 211 -2z" />
    <glyph glyph-name="C" unicode="C" horiz-adv-x="700" 
d="M676 260l-4 -13q-37 -110 -120.5 -178.5t-196.5 -68.5q-94 0 -171 50.5t-118.5 131t-41.5 171.5q0 140 95 246t236 106q86 0 157 -42t119 -115l2 -4l1 -2l3 -6l-33 -21l-4 6q-94 143 -245 143q-124 0 -207 -93t-83 -218t83 -219t207 -94q99 0 177.5 64.5t102.5 160.5l2 7
z" />
    <glyph glyph-name="D" unicode="D" horiz-adv-x="588" 
d="M230 706q141 -3 235 -105.5t94 -245.5q0 -101 -49.5 -189t-138.5 -133q-64 -34 -128 -34q-52 0 -101 1q-49 0 -67 1h-22h-6v-1h-5l-3 3q-11 5 -11 18l4 664q0 23 24 23q58 0 174 -2zM233 41q123 0 204.5 95t81.5 219q0 120 -80.5 214t-199.5 95q-110 2 -165 2l-4 -624
q54 -1 163 -1z" />
    <glyph glyph-name="E" unicode="E" horiz-adv-x="576" 
d="M71 370h362q9 0 14 -6t5 -14q0 -21 -19 -21h-360l-5 -289h451q8 0 13.5 -6.5t5.5 -13.5q0 -8 -5 -14.5t-14 -6.5h-467q-24 0 -24 25l5 657q0 20 21 20h476q9 0 14.5 -6.5t5.5 -14.5t-5.5 -14.5t-14.5 -6.5h-456z" />
    <glyph glyph-name="F" unicode="F" horiz-adv-x="641" 
d="M592 704q9 0 15 -6.5t6 -14.5t-6 -14.5t-15 -6.5h-512l-3 -292h410q9 0 15 -6t6 -14q0 -9 -6 -15t-15 -6h-410l-3 -309q0 -9 -6 -15t-15 -6q-20 0 -20 19q0 110 2.5 332t2.5 333q0 10 7 15.5t16 5.5h531z" />
    <glyph glyph-name="G" unicode="G" horiz-adv-x="742" 
d="M365 0q-144 0 -242.5 104.5t-98.5 247.5q0 142 98.5 247.5t242.5 105.5q105 0 190.5 -59.5t124.5 -155.5q0 -1 1 -3t1 -3l2 -6l-36 -18l-3 7q-38 90 -110.5 143t-169.5 53q-126 0 -213 -93t-87 -218t87.5 -218t212.5 -93t210.5 88.5t90.5 212.5h-318q-9 0 -15 6t-6 15
q0 19 21 19h333q6 0 16 2l7 2l1 -8q2 -18 2 -26q0 -143 -99 -247.5t-243 -104.5z" />
    <glyph glyph-name="H" unicode="H" horiz-adv-x="718" 
d="M649 684q0 8 6 14.5t14 6.5q9 0 14.5 -6.5t5.5 -14.5l-5 -666q0 -9 -6 -14.5t-15 -5.5q-8 0 -13.5 6t-5.5 14l2 315h-581l-3 -312q0 -21 -20 -21q-7 0 -13.5 5.5t-6.5 13.5q0 110 2.5 332t2.5 333q0 8 5.5 14.5t14.5 6.5t15 -6t6 -15l-3 -310h582z" />
    <glyph glyph-name="I" unicode="I" horiz-adv-x="720" 
d="M678 705q20 0 20 -21t-20 -21h-316l-6 -631h316q21 0 21 -20q0 -21 -21 -21h-630q-9 0 -15 6t-6 15q0 8 6 14t15 6h274l5 630l-274 1q-20 0 -20 21t20 21h631z" />
    <glyph glyph-name="J" unicode="J" horiz-adv-x="744" 
d="M708 705q9 0 14.5 -6.5t5.5 -14.5t-5.5 -14.5t-14.5 -6.5h-237l-5 -469q-1 -90 -67 -143t-159 -53q-92 0 -158.5 58.5t-66.5 148.5v7h41v-7q0 -73 54 -119.5t130 -46.5q77 0 130 41.5t54 113.5l5 469h-398q-21 0 -21 21q0 9 6 15t15 6h677z" />
    <glyph glyph-name="K" unicode="K" horiz-adv-x="667" 
d="M606 700h6q9 0 15 -6.5t6 -15.5q0 -10 -11 -17l-536 -314l528 -311q11 -5 11 -17q0 -21 -25 -21h-2l-532 314l-2 -295q0 -21 -20 -21t-20 21l4 669q0 8 5.5 14.5t14.5 6.5q20 0 20 -21l-2 -304z" />
    <glyph glyph-name="L" unicode="L" horiz-adv-x="696" 
d="M649 40q9 0 14 -6t5 -14q0 -21 -19 -21h-601q-10 0 -15 7.5t-5 15.5l5 663q0 9 6 14.5t15 5.5q8 0 14 -6t6 -14l-5 -645h580z" />
    <glyph glyph-name="M" unicode="M" horiz-adv-x="766" 
d="M412 329q12 16 28 36q57 72 175 214l60 74q22 24 31 37q9 9 16 9q9 0 15 -6t6 -15l-5 -662q0 -20 -21 -20t-21 20l5 605l-298 -360q-5 -8 -15 -8t-16 8l-302 367l-4 -612q0 -20 -21 -20t-21 20l5 668q0 8 6 14.5t15 6.5q11 0 27 -21q2 -2 5.5 -6.5t5.5 -6.5l60 -75
l243 -294q12 17 21 27z" />
    <glyph glyph-name="N" unicode="N" horiz-adv-x="746" 
d="M685 678q0 8 6 14.5t15 6.5t15 -6t6 -15l-5 -659q0 -20 -21 -20q-7 0 -16 7l-3 3l-618 625l-5 -614q0 -9 -6 -15t-15 -6t-15 6t-6 15l5 661q0 9 6 16t16 7q5 0 14 -6l622 -630z" />
    <glyph glyph-name="O" unicode="O" horiz-adv-x="766" 
d="M381 -2q-150 0 -258 102t-108 249q0 146 108.5 248.5t257.5 102.5t258 -102.5t109 -248.5q0 -148 -108.5 -249.5t-258.5 -101.5zM381 658q-133 0 -228.5 -90t-95.5 -219q0 -130 95.5 -220t228.5 -90t229 90t96 220q0 129 -96.5 219t-228.5 90z" />
    <glyph glyph-name="P" unicode="P" horiz-adv-x="551" 
d="M279 234l-207 3l-2 -219q0 -9 -6 -15t-15 -6t-15 6t-6 15l5 665q0 10 8 16t17 6q38 0 113 -1.5t112 -1.5q97 0 163 -70t66 -166q0 -95 -68 -163.5t-165 -68.5zM276 274q80 0 137 56.5t57 135.5q0 80 -55 136.5t-135 57.5q-31 1 -65 1.5t-75.5 1t-64.5 0.5l-3 -386
q23 0 64.5 -1t75.5 -1.5t64 -0.5z" />
    <glyph glyph-name="Q" unicode="Q" horiz-adv-x="757" 
d="M670 6l-4 2q-37 25 -75 61q-96 -69 -208 -69q-145 0 -247.5 104t-102.5 247t102.5 246.5t247.5 103.5t247.5 -103.5t102.5 -246.5q0 -154 -110 -256l37 -29q18 -16 25 -23q2 -1 4.5 -4t4.5 -4q2 -2 2 -4q2 -2 2 -5q0 -20 -28 -20zM418 211q-7 7 -7 14q0 9 7 15.5t16 6.5
q3 -1 6 -3l6 -4l17 -13q56 -44 128 -106q100 92 100 230q0 126 -90 217t-218 91t-218.5 -90.5t-90.5 -217.5t90.5 -218.5t218.5 -91.5q97 0 175 55q-94 76 -140 115z" />
    <glyph glyph-name="R" unicode="R" horiz-adv-x="529" 
d="M283 702q98 -2 163.5 -70.5t65.5 -165.5q0 -95 -68.5 -163.5t-164.5 -68.5q-49 0 -149 2l336 -194q10 -5 10 -17q0 -8 -6 -14.5t-15 -6.5q-6 0 -159 88t-224 131q-2 -138 -2 -205q0 -21 -21 -21t-21 25q0 110 2.5 330.5t2.5 330.5q0 21 22 21q76 0 228 -2zM72 277
q23 0 64.5 -1t75.5 -1.5t64 -0.5q80 0 137 56.5t57 135.5q0 81 -54 137t-136 57q-31 1 -65 1.5t-75.5 1t-64.5 0.5z" />
    <glyph glyph-name="S" unicode="S" horiz-adv-x="593" 
d="M23 17q0 8 6 14t15 6q56 0 168.5 -1t168.5 -1q23 0 59 15q41 18 65.5 52.5t24.5 77.5q0 60 -43.5 101.5t-104.5 47.5q-18 1 -57 1h-78q-83 0 -146.5 51t-63.5 132q0 82 65.5 136t148.5 54q35 0 104 1t104 1q21 0 21 -21q0 -18 -19 -21q-12 -2 -39 -2h-14h-154
q-70 0 -122.5 -41.5t-52.5 -106.5q0 -67 54.5 -106t126.5 -39q8 0 24 0.5t24 0.5h60q83 0 143 -54t60 -135q0 -83 -63 -134.5t-148 -51.5q-50 0 -150.5 1t-150.5 1h-7q-29 0 -29 21z" />
    <glyph glyph-name="T" unicode="T" horiz-adv-x="751" 
d="M710 705q9 0 15 -6.5t6 -14.5t-6 -14.5t-15 -6.5h-328l-4 -644q0 -20 -21 -20t-21 20l4 644h-307q-20 0 -20 21t20 21h677z" />
    <glyph glyph-name="U" unicode="U" horiz-adv-x="762" 
d="M56 198q-32 69 -32 133q0 59 1 177.5t1 177.5q0 21 21 21q9 0 14.5 -6.5t5.5 -14.5l-1 -355q0 -57 27 -114q38 -82 114.5 -130.5t167.5 -48.5q132 0 223.5 90t91.5 220v7h2q-2 50 -2 151v182q0 9 6 14.5t15 5.5t15 -5.5t6 -14.5q0 -57 0.5 -171t0.5 -171
q0 -145 -105 -247t-253 -102q-102 0 -188.5 54.5t-130.5 146.5z" />
    <glyph glyph-name="V" unicode="V" horiz-adv-x="762" 
d="M699 691q5 11 17 11q9 0 15.5 -6t6.5 -15q0 -5 -77 -155q-66 -133 -202 -397l-41 -81l-2.5 -5l-3.5 -7l-3 -6l-10 -18q-8 -10 -18 -10q-13 0 -18 11l-178 347q-14 26 -87.5 172t-73.5 149q0 8 6.5 14.5t14.5 6.5q12 0 18 -11l318 -624z" />
    <glyph glyph-name="W" unicode="W" horiz-adv-x="775" 
d="M392 395l-322 -388q-5 -7 -15 -7q-9 0 -15.5 6t-6.5 15l-5 661q0 9 6 15t15 6t15 -6.5t6 -14.5l4 -605l303 363q5 7 15 7q9 0 15 -7l299 -357l-5 599q0 9 6 15t15 6t15 -6.5t6 -14.5l5 -655q0 -9 -7 -15.5t-15 -6.5q-7 0 -14 7z" />
    <glyph glyph-name="X" unicode="X" horiz-adv-x="762" 
d="M732 35q6 -6 6 -14t-6.5 -14.5t-14.5 -6.5q-6 0 -15 7l-321 318l-321 -318q-9 -7 -15 -7q-8 0 -14.5 6.5t-6.5 14.5t6 14l321 320l-321 318q-6 6 -6 15t6 14.5t15 5.5q7 0 15 -6l321 -319l321 319q6 6 15 6q8 0 14.5 -5.5t6.5 -14.5t-6 -15l-321 -318z" />
    <glyph glyph-name="Y" unicode="Y" horiz-adv-x="757" 
d="M703 701q9 6 15 6q8 0 14.5 -6.5t6.5 -14.5t-7 -15l-327 -288l-4 -361q0 -9 -6 -15t-15 -6t-15 6t-6 15l5 364q-8 6 -34.5 29.5t-67 58.5t-73.5 63q-133 115 -160 140q-5 4 -5 12q0 20 25 20q5 0 9 -4l328 -284z" />
    <glyph glyph-name="Z" unicode="Z" horiz-adv-x="737" 
d="M708 44q21 0 21 -19q0 -9 -6 -15t-15 -6l-664 4q-9 0 -15 6.5t-6 14.5q0 7 7 14l627 617l-615 3q-9 0 -15 6t-6 15t6 15t15 6l664 -4q8 0 15 -6.5t7 -14.5q0 -6 -7 -15l-628 -617z" />
    <glyph glyph-name="bracketleft" unicode="[" horiz-adv-x="304" 
d="M92 38h136q21 0 21 -20q0 -21 -21 -21h-156q-9 0 -15.5 6t-6.5 15q0 110 2 329t2 329q0 21 23 21h156q21 0 21 -21q0 -20 -21 -20h-137z" />
    <glyph glyph-name="backslash" unicode="\" horiz-adv-x="411" 
d="M352 12q-12 21 -28 54q-16 36 -25 54l-198 397q-1 3 -7.5 15t-16 31.5t-17.5 35.5q-37 72 -37 79q0 8 6 15t15 7q10 0 18 -12q4 -7 10.5 -20.5t9.5 -18.5l41 -83l195 -390q73 -148 73 -152q0 -9 -6 -15.5t-15 -6.5q-11 0 -18 10z" />
    <glyph glyph-name="bracketright" unicode="]" horiz-adv-x="250" 
d="M53 0q-21 0 -21 21q0 20 21 20h137q-1 92 -1.5 195t-1 228.5t-0.5 193.5h-140q-9 0 -15 6t-6 15t6 15t15 6h158q19 0 21 -20q2 -14 2 -89q0 -95 1.5 -285t1.5 -285q0 -9 -6 -15t-15 -6h-157z" />
    <glyph glyph-name="asciicircum" unicode="^" horiz-adv-x="318" 
d="M163 644l-98 -138q-8 -10 -17 -10q-8 0 -15 5.5t-7 14.5q0 3 2 6q2 5 7.5 13t8.5 13q4 6 17.5 25t21.5 30q54 79 61 86q7 11 19 11q1 0 7 -2l6 -3l3 -3q2 -5 23 -33q7 -11 40 -55q57 -78 57 -87q0 -8 -6.5 -14.5t-14.5 -6.5q-11 0 -18 10z" />
    <glyph glyph-name="underscore" unicode="_" horiz-adv-x="360" 
d="M65 -17q-42 0 -42 23q0 19 21 19h249q2 0 6 0.5t6 0.5q37 0 37 -22q0 -21 -21 -21h-256z" />
    <glyph glyph-name="a" unicode="a" horiz-adv-x="379" 
d="M354 21q0 -21 -21 -21q-9 0 -15 6t-5 15v48q-47 -57 -122 -57q-72 0 -120.5 53t-48.5 124q0 70 48.5 123t120.5 53q75 0 126 -62q0 4 -0.5 11.5t-0.5 10.5q0 9 6 15t15 6t15 -6t6 -15zM301 252q-15 31 -45.5 51t-64.5 20q-54 0 -91 -40t-37 -94t37 -95.5t91 -41.5
q45 0 82.5 34t41.5 79q1 0 1 21l-1 21q0 19 -14 45z" />
    <glyph glyph-name="b" unicode="b" horiz-adv-x="382" 
d="M193 11q-81 0 -132 66v-54q0 -9 -6 -15t-15 -6t-15 6t-6 15l5 665q0 8 5.5 14t14.5 6t15 -5.5t6 -14.5l-2 -390q49 65 130 65q72 0 120 -52.5t48 -123.5t-48 -123.5t-120 -52.5zM193 321q-54 0 -90.5 -40t-36.5 -94t37 -95.5t90 -41.5t89.5 41.5t36.5 95.5t-36 94t-90 40
z" />
    <glyph glyph-name="c" unicode="c" horiz-adv-x="377" 
d="M358 146l-2 -7q-15 -58 -60 -95.5t-105 -37.5q-73 0 -122.5 53t-49.5 125t49.5 125.5t122.5 53.5q89 0 145 -86l4 -6l-35 -21l-4 6l-1 2v2q-15 27 -46 44t-63 17q-54 0 -92 -41.5t-38 -95.5q0 -55 37.5 -97t92.5 -42q43 0 77 27.5t47 71.5q0 3 1 4l1 7z" />
    <glyph glyph-name="d" unicode="d" horiz-adv-x="382" 
d="M319 75q-51 -67 -131 -67q-72 0 -120.5 52.5t-48.5 123.5q0 70 48.5 123t120.5 53q81 0 129 -64q-2 260 -2 390q0 21 20 21q21 0 21 -21l5 -663q0 -9 -6 -15t-15 -6t-15 6t-6 15v52zM188 318q-54 0 -90.5 -40t-36.5 -94t37 -95t90 -41q54 0 90 40.5t36 95.5q0 54 -36 94
t-90 40z" />
    <glyph glyph-name="e" unicode="e" horiz-adv-x="404" 
d="M68 154q10 -49 48.5 -81t88.5 -32q89 0 131 86l6 11l36 -14l-3 -7q-21 -53 -66.5 -84.5t-103.5 -31.5q-75 0 -128 53t-53 127t53 127t128 53q80 0 131.5 -55t51.5 -134v-18h-320zM346 196q-6 52 -46.5 87.5t-94.5 35.5q-53 0 -93 -35.5t-46 -87.5h280z" />
    <glyph glyph-name="f" unicode="f" horiz-adv-x="311" 
d="M70 25q0 -9 -6 -15t-15 -6t-15 6t-6 15l3 469q0 35 6 67t19.5 65.5t42 53.5t68.5 20t70 -30t43 -64t20 -72l1 -7l-42 -6l-1 7q-8 49 -30.5 89.5t-60.5 40.5q-33 0 -55.5 -29t-30.5 -64.5t-8 -70.5q0 -29 -0.5 -87t-0.5 -87h156q21 0 21 -19q0 -21 -21 -21h-156z" />
    <glyph glyph-name="g" unicode="g" 
d="M24 -127h42v-7q0 -67 33.5 -122t95.5 -55t95.5 49t33.5 115q0 36 1 108t1 108q-51 -62 -128 -62q-72 0 -120.5 52.5t-48.5 123.5t48.5 123.5t120.5 52.5q80 0 129 -64v32q0 9 6 15t15 6q21 0 21 -21q0 -79 -2 -237t-2 -237q0 -81 -44.5 -143t-125.5 -62q-56 0 -96 35.5
t-57.5 83.5t-17.5 99v7zM198 317q-54 0 -90.5 -40t-36.5 -94q0 -55 36 -96t91 -41q53 0 89 41t36 96t-35.5 94.5t-89.5 39.5z" />
    <glyph glyph-name="h" unicode="h" 
d="M322 20q0 27 1 82.5t1 83.5q0 50 -37.5 89t-87.5 39q-52 0 -91.5 -37.5t-38.5 -88.5l1 -168q0 -20 -21 -20t-21 20l-4 662q0 20 21 20t21 -20l2 -387q49 60 131 60q69 0 118 -52t49 -121q0 -24 -0.5 -50.5t-1.5 -59.5t-1 -51q0 -20 -21 -20q-7 0 -13.5 5.5t-6.5 13.5z
" />
    <glyph glyph-name="i" unicode="i" horiz-adv-x="104" 
d="M53 311q-11 0 -17.5 6.5t-6.5 17.5t6.5 17.5t17.5 6.5t17.5 -6.5t6.5 -17.5t-6.5 -17.5t-17.5 -6.5zM72 23q0 -21 -20 -21q-9 0 -15 6t-6 15q0 44 1 129t1 130q0 8 6 13t14 5q9 0 15 -6t6 -14z" />
    <glyph glyph-name="j" unicode="j" horiz-adv-x="395" 
d="M369 360l-4 -518q-1 -80 -46 -138t-124 -58q-80 0 -125.5 64.5t-45.5 143.5v7h41v-7q0 -65 34.5 -116t95.5 -51q60 0 94 46t34 109l4 476h-209q-9 0 -15 6.5t-6 14.5q0 9 6 15t15 6h251z" />
    <glyph glyph-name="k" unicode="k" horiz-adv-x="331" 
d="M45 704q9 0 15 -6.5t6 -14.5l3 -464q82 56 207 140q4 4 12 4q9 0 14.5 -7t5.5 -15q0 -11 -9 -16l-219 -148l117 -75q80 -50 103 -67l3 -3l3 -2q0 -1 1.5 -5t1.5 -6q0 -8 -6.5 -14.5t-14.5 -6.5q-6 0 -100 60.5t-119 78.5l1 -120q0 -9 -6 -15t-15 -6q-21 0 -21 21l-4 666
q0 8 6 14.5t15 6.5z" />
    <glyph glyph-name="l" unicode="l" horiz-adv-x="101" 
d="M68 23q0 -9 -6 -15t-15 -6t-15 6t-6 15v665q0 9 6 14.5t15 5.5t15 -5.5t6 -14.5v-665z" />
    <glyph glyph-name="m" unicode="m" horiz-adv-x="690" 
d="M622 21q2 110 2 167q0 51 -38 89.5t-89 38.5q-55 0 -92 -39t-38 -93l-2 -162q0 -21 -21 -21q-9 0 -15 6t-6 15q2 110 2 167q0 51 -37 89.5t-88 38.5q-55 0 -92 -38.5t-38 -93.5l-2 -164q0 -20 -22 -20q-20 0 -20 20l4 325q0 20 21 20q8 0 14.5 -5.5t6.5 -14.5l-2 -47
q54 60 130 60q47 0 86 -25t60 -67q23 41 63.5 66t87.5 25q70 0 119 -52t49 -121q0 -27 -1 -82t-1 -82q-2 -21 -20 -21q-21 0 -21 21z" />
    <glyph glyph-name="n" unicode="n" 
d="M327 184q0 51 -37 90t-88 39q-54 0 -91.5 -40t-38.5 -94l-2 -156q0 -9 -6 -15t-15 -6t-15 6t-6 15l4 317q0 21 21 21q8 0 14.5 -6t6.5 -15l-1 -47q51 60 129 60q68 0 118 -51.5t50 -119.5q0 -37 -2 -111q0 -41 -1 -49q-2 -20 -21 -20q-9 0 -15 6t-6 15q2 106 2 161z" />
    <glyph glyph-name="o" unicode="o" horiz-adv-x="377" 
d="M188 9q-71 0 -120 53.5t-49 123.5q0 69 49 122.5t120 53.5t119.5 -53t48.5 -123t-48.5 -123.5t-119.5 -53.5zM188 320q-54 0 -90.5 -40t-36.5 -94q0 -55 36.5 -96t90.5 -41t90 41t36 96q0 54 -36 94t-90 40z" />
    <glyph glyph-name="p" unicode="p" horiz-adv-x="386" 
d="M198 6q-81 0 -131 64l3 -403q0 -9 -6 -15t-15 -6q-21 0 -21 21l-4 679q0 8 6 14.5t15 6.5t15 -6.5t6 -14.5v-54q51 67 132 67q71 0 119 -53.5t48 -123.5q0 -69 -48.5 -122.5t-118.5 -53.5zM198 317q-56 0 -91.5 -39.5t-35.5 -95.5q0 -55 36 -95.5t91 -40.5
q54 0 89.5 40.5t35.5 95.5t-35.5 95t-89.5 40z" />
    <glyph glyph-name="q" unicode="q" 
d="M323 341q0 20 21 20t21 -20q0 -113 -2 -340t-2 -340q0 -21 -21 -21q-8 0 -14.5 6t-6.5 15l3 404q-48 -64 -129 -64q-73 0 -121 52t-48 124t48 124t121 52q81 0 130 -67v55zM193 312q-54 0 -90.5 -40t-36.5 -95t36.5 -95.5t90.5 -40.5q53 0 89 40.5t36 95.5t-35.5 95
t-89.5 40z" />
    <glyph glyph-name="r" unicode="r" horiz-adv-x="230" 
d="M210 313h-7q-57 0 -95.5 -38.5t-39.5 -95.5l-2 -159q0 -9 -6 -15t-15 -6t-15 6t-6 15l4 320q0 21 21 21q8 0 14.5 -6t6.5 -15l-1 -47q51 60 134 60h7v-40z" />
    <glyph glyph-name="s" unicode="s" horiz-adv-x="331" 
d="M205 1q-26 0 -78 0.5t-78 0.5q-9 0 -15 6t-6 15q0 19 21 19l161 -1q22 0 41 18t19 40q0 24 -19.5 42t-44.5 18q-9 0 -27.5 -0.5t-28.5 -0.5q-45 0 -80.5 27.5t-35.5 71.5q0 43 34 71t79 30l99 2q21 0 21 -21q0 -19 -21 -21l-97 -2q-30 0 -51.5 -16t-21.5 -43
q0 -28 24.5 -43t57.5 -15q7 0 22.5 0.5t23.5 0.5q44 0 76 -28.5t32 -72.5q0 -42 -32 -70t-75 -28z" />
    <glyph glyph-name="t" unicode="t" horiz-adv-x="322" 
d="M160 177q-1 -56 38 -94.5t96 -38.5h7v-40h-14q-71 0 -120 52.5t-49 122.5q0 104 2 308h-80q-9 0 -15 6.5t-6 14.5q0 9 6 15t15 6h80l1 152q0 20 21 20t21 -20l-1 -152h65q21 0 21 -21q0 -8 -6 -14.5t-15 -6.5h-65z" />
    <glyph glyph-name="u" unicode="u" horiz-adv-x="395" 
d="M365 19q0 -21 -21 -21q-9 0 -15 6t-6 15q0 7 0.5 22.5t0.5 23.5q-50 -60 -127 -60q-72 0 -120.5 53.5t-48.5 124.5q0 53 2 159q0 20 21 20q8 0 14.5 -5.5t6.5 -14.5q-2 -110 -2 -165q0 -52 37.5 -92t89.5 -40q56 0 91.5 40t36.5 96l3 161q2 21 21 21q9 0 15 -6t6 -15z
" />
    <glyph glyph-name="v" unicode="v" horiz-adv-x="408" 
d="M302 183q-14 -29 -36 -73t-34 -68.5t-15 -30.5q-7 -12 -19 -12t-19 12q-26 51 -75 145t-68 131q-1 1 -3 5t-5 9.5t-5 10.5t-7 15l-3 5l-2 3q-1 4 -1 6q0 9 6.5 15t15.5 6q11 0 17 -11l145 -278q1 -4 4 -8q42 84 94 190q3 6 20.5 42.5t27.5 54.5q6 11 17 11q9 0 15.5 -6
t6.5 -15q0 -5 -77 -159z" />
    <glyph glyph-name="w" unicode="w" horiz-adv-x="426" 
d="M352 342q0 8 6 14.5t15 6.5t15 -6.5t6 -14.5l-3 -319q0 -9 -6 -15t-15 -6q-2 0 -8 3q-4 4 -7 6q-2 3 -8.5 10t-9.5 10q-26 28 -53 59l-76 90l-145 -171q-5 -7 -16 -7q-9 0 -15 6t-6 15l-2 319q0 8 6 14.5t15 6.5t15 -6.5t6 -14.5l1 -264l126 147q7 7 15 7q9 0 16 -7
l126 -148z" />
    <glyph glyph-name="x" unicode="x" horiz-adv-x="417" 
d="M385 35q6 -6 6 -14t-6.5 -14.5t-14.5 -6.5q-9 0 -15 6l-148 147l-147 -147q-8 -6 -15 -6q-8 0 -14.5 6.5t-6.5 14.5t6 14l149 147l-149 147q-6 6 -6 15q0 8 6.5 14.5t14.5 6.5q9 0 15 -6l147 -149l148 149q6 6 15 6q8 0 14.5 -6.5t6.5 -14.5q0 -9 -6 -15l-149 -147z" />
    <glyph glyph-name="y" unicode="y" horiz-adv-x="399" 
d="M28 -122h42v-7q0 -67 34 -123.5t96 -56.5q61 0 94.5 51t33.5 117q0 35 1 105t1 104q-51 -59 -128 -59q-71 0 -120 51.5t-49 120.5q0 2 3 161q0 21 21 21q9 0 14.5 -6.5t5.5 -14.5l-2 -163q-1 -50 37.5 -90t89.5 -40q54 0 90.5 39.5t37.5 94.5q2 106 2 160q2 21 21 21
q9 0 15 -6.5t6 -14.5q0 -54 -2 -160q-2 -216 -2 -324q0 -81 -44.5 -145t-125.5 -64q-82 0 -127 69.5t-45 151.5v7z" />
    <glyph glyph-name="z" unicode="z" horiz-adv-x="417" 
d="M376 41q8 0 14.5 -6t6.5 -14q0 -9 -6 -15t-15 -6l-330 2q-7 0 -15 6.5t-8 14.5q0 9 6 12q7 8 144 143q30 28 83 79.5t67 64.5l-278 2q-9 0 -15 6t-6 15t6 15t15 6l331 -2q9 -1 14 -7t5 -14q0 -11 -7 -15l-3 -3l-292 -283z" />
    <glyph glyph-name="braceleft" unicode="{" horiz-adv-x="357" 
d="M146 339q0 -49 -1.5 -149t-1.5 -149h138q9 0 15 -6t6 -14q0 -9 -6 -15t-15 -6h-160q-19 0 -19 21q0 53 0.5 161t0.5 162q-6 3 -14 3q-49 0 -49 22t34 22h10q8 0 11 1q6 0 8 2v6q0 30 1 90.5t1 90.5v107q0 10 7.5 15t15.5 5h158q9 0 15 -6.5t6 -14.5q0 -9 -6 -15t-15 -6
h-139q-1 -85 -1 -257v-13q0 -12 -9 -25q9 -13 9 -32z" />
    <glyph glyph-name="braceright" unicode="}" horiz-adv-x="347" 
d="M254 18q0 -21 -22 -21h-156q-21 0 -21 21t21 21h138q-2 204 -2 305q0 14 7 24q-7 10 -7 22q0 91 -2 273h-139q-9 0 -15 6.5t-6 14.5t6 14.5t15 6.5h157q19 0 24 -29q1 -8 0 -21t-1 -14v-91q0 -24 1 -70t1 -70q0 -3 -1 -8.5t-1 -7.5q0 -3 5 -4q3 -1 9 -1q4 -1 12 -1
q40 0 40 -22t-37 -22h-11q-7 0 -16 -3q0 -54 0.5 -162t0.5 -161z" />
    <glyph glyph-name="uni00A0" unicode="&#xa0;" horiz-adv-x="378" 
 />
    <glyph glyph-name="cent" unicode="&#xa2;" horiz-adv-x="354" 
d="M349 320l-2 -7q-14 -53 -53.5 -90t-93.5 -43v-159q0 -21 -19 -21q-21 0 -21 21v160q-65 9 -107.5 60.5t-42.5 116.5t42.5 117t107.5 60v151q0 21 21 21q9 0 14 -6.5t5 -14.5v-151q78 -8 127 -84l4 -6l-35 -21l-4 6q-29 52 -92 64v-273q38 6 69.5 34.5t37.5 65.5l1 8z
M160 493q-47 -8 -77.5 -47.5t-30.5 -87.5t31 -88t77 -49v272z" />
    <glyph glyph-name="copyright" unicode="&#xa9;" horiz-adv-x="766" 
d="M381 -2q-150 0 -258 102t-108 249q0 146 108.5 248.5t257.5 102.5t258 -102.5t109 -248.5q0 -148 -108.5 -249.5t-258.5 -101.5zM381 658q-133 0 -228.5 -90t-95.5 -219q0 -130 95.5 -220t228.5 -90t229 90t96 220q0 129 -96.5 219t-228.5 90zM550 309l-2 -7
q-15 -58 -60 -95.5t-105 -37.5q-73 0 -122.5 53.5t-49.5 124.5q0 72 49.5 125.5t122.5 53.5q89 0 145 -86l4 -6l-33 -21l-4 6q-42 66 -112 66q-54 0 -92 -41.5t-38 -96.5t37.5 -97t92.5 -42q45 0 77 26.5t47 71.5l4 12z" />
    <glyph glyph-name="guillemotleft" unicode="&#xab;" horiz-adv-x="504" 
d="M306 154q0 -8 -6.5 -14t-14.5 -6q-3 0 -5 1q-1 1 -2 1q-2 1 -3 1q-2 1 -6.5 4t-6.5 4q-11 7 -37 25l-60 42l-128 88l-3 2q-8 5 -8 14q0 10 10 18q12 10 19 15q14 8 20 12l80 54q28 19 84 59q4 2 16 10.5t19 12.5q4 3 11 3q8 0 14.5 -6t6.5 -14q0 -9 -6 -13
q-4 -4 -105 -74q-30 -21 -113 -76l214 -145q10 -8 10 -18zM478 154q0 -8 -6.5 -14t-14.5 -6q-3 0 -5 1q-1 1 -2 1q-2 1 -3 1q-2 1 -6.5 4t-6.5 4q-11 7 -37 25l-60 42l-128 88l-3 2q-8 5 -8 14q0 10 10 18q12 10 19 15q4 3 11 6.5t9 5.5l80 54q28 19 84 59q6 4 17.5 11.5
t17.5 11.5q4 3 11 3q8 0 14.5 -6t6.5 -14q0 -9 -6 -13q-4 -4 -105 -74q-30 -21 -113 -76l214 -145q10 -8 10 -18z" />
    <glyph glyph-name="uni00AD" unicode="&#xad;" horiz-adv-x="234" 
d="M121 326q-27 1 -80 1q-17 0 -17 21q0 20 13 20q26 0 79 -1.5t80 -1.5q6 0 9.5 -0.5t7 -5.5t3.5 -15q0 -21 -13 -21t-41 1.5t-41 1.5z" />
    <glyph glyph-name="registered" unicode="&#xae;" horiz-adv-x="766" 
d="M15 349q0 147 108 249t258 102t258.5 -102t108.5 -249q0 -148 -108.5 -249.5t-258.5 -101.5t-258 102t-108 249zM57 349q0 -129 96 -219.5t228 -90.5t228.5 90.5t96.5 219.5q0 130 -96 219.5t-229 89.5t-228.5 -90t-95.5 -219zM351 273l161 -93q13 -8 13 -19
q0 -17 -21 -17q-3 0 -6 2q-28 15 -29 16q-66 38 -69 40q-98 56 -101 58v-101q-1 -16 -18 -16q-13 0 -16 8q-5 4 -5 12l3 369q0 7 6.5 11.5t13.5 4.5l124 -2q57 -1 96.5 -41.5t39.5 -96.5q0 -55 -38.5 -95t-94.5 -40h-59zM506 412q0 39 -28 68t-67 29q-19 0 -55 0.5t-55 0.5
l-1 -196q8 -1 24 -1h25q9 0 26 -0.5t25 -0.5q46 0 76 27.5t30 72.5z" />
    <glyph glyph-name="guillemotright" unicode="&#xbb;" horiz-adv-x="504" 
d="M26 154q0 10 10 18l214 145q-83 55 -113 76q-101 70 -105 74q-6 4 -6 13q0 8 6.5 14t14.5 6q7 0 11 -3q5 -4 17 -11.5t18 -11.5q56 -40 84 -59l80 -54q2 -2 9 -5.5t11 -6.5q7 -5 19 -15q10 -8 10 -18q0 -9 -8 -14l-3 -2l-128 -88l-60 -42q-26 -18 -37 -25q-2 -1 -6.5 -4
t-6.5 -4q-1 0 -2.5 -0.5t-2.5 -1.5q-2 -1 -5 -1q-8 0 -14.5 6t-6.5 14zM198 154q0 10 10 18l214 145q-83 55 -113 76q-101 70 -105 74q-6 4 -6 13q0 8 6.5 14t14.5 6q7 0 11 -3q7 -4 19 -12.5t16 -10.5q56 -40 84 -59l80 -54q6 -4 20 -12q7 -5 19 -15q10 -8 10 -18
q0 -9 -8 -14l-3 -2l-128 -88l-60 -42q-26 -18 -37 -25q-2 -1 -6.5 -4t-6.5 -4q-1 0 -2.5 -0.5t-2.5 -1.5q-2 -1 -5 -1q-8 0 -14.5 6t-6.5 14z" />
    <glyph glyph-name="quoteleft" unicode="&#x2018;" horiz-adv-x="88" 
d="M76 626l-34 -29l-4 7q-1 2 -8 12.5t-9 15.5q-9 20 -9 35q0 36 28 36q12 0 19.5 -7.5t7.5 -18.5q0 -16 -11 -24q2 -9 15 -22z" />
    <glyph glyph-name="quoteright" unicode="&#x2019;" horiz-adv-x="88" 
d="M12 626l5 5q13 13 15 22q-11 8 -11 24q0 11 7.5 18.5t19.5 7.5q28 0 28 -36q0 -15 -9 -35q-2 -5 -9 -15.5t-8 -12.5l-4 -7z" />
    <glyph glyph-name="quotedblleft" unicode="&#x201c;" horiz-adv-x="197" 
d="M76 626l-34 -29l-4 7q-1 2 -8 12.5t-9 15.5q-9 20 -9 35q0 36 28 36q12 0 19.5 -7.5t7.5 -18.5q0 -16 -11 -24q2 -9 15 -22zM157 626l-34 -29l-4 7q-1 2 -8 12.5t-9 15.5q-9 20 -9 35q0 36 28 36q12 0 19.5 -7.5t7.5 -18.5q0 -16 -11 -24q2 -9 15 -22z" />
    <glyph glyph-name="quotedblright" unicode="&#x201d;" horiz-adv-x="197" 
d="M12 626l5 5q13 13 15 22q-11 8 -11 24q0 11 7.5 18.5t19.5 7.5q28 0 28 -36q0 -15 -9 -35q-2 -5 -9 -15.5t-8 -12.5l-4 -7zM93 626l5 5q13 13 15 22q-11 8 -11 24q0 11 7.5 18.5t19.5 7.5q28 0 28 -36q0 -15 -9 -35q-2 -5 -9 -15.5t-8 -12.5l-4 -7z" />
    <glyph glyph-name="Euro" unicode="&#x20ac;" horiz-adv-x="444" 
d="M404 660h-7q-111 0 -184.5 -78.5t-86.5 -192.5q98 3 195 3q21 0 21 -21q0 -17 -19 -19q-27 -3 -54 -3h-145q0 -10 2 -30l195 3q21 0 21 -19q0 -17 -18 -21q-12 -2 -37 -2h-4h-39q-76 0 -113 -1q20 -102 92.5 -170t173.5 -68h7v-41h-14q-115 0 -197.5 82t-103.5 196
q-7 0 -22 -0.5t-23 -0.5q-21 0 -21 21q0 17 19 19q14 2 42 2v29h-40q-21 0 -21 20t21 20h41q12 126 96 220t209 94h14v-42z" />
    <glyph glyph-name="trademark" unicode="&#x2122;" horiz-adv-x="792" 
d="M399 695q5 3 11 3q7 0 14 -7l162 -196l159 193q6 7 15 7q20 0 20 -16q0 -67 -2 -191t-2 -163q0 -16 -19 -16q-8 0 -13.5 5t-5.5 13q0 48 1 146t1 147q-129 -166 -151 -177l-3 -1l-3 1q-12 5 -82 91l-74 90l-3 -299q0 -16 -18 -16q-19 0 -19 16q0 1 3 334l-1 -1h-1h-166
l-2 -332q0 -15 -19 -15q-20 0 -20 20l3 327h-154q-17 0 -17 20t17 20h358q1 0 3 -0.5t4.5 -1.5t3.5 -1z" />
    <glyph glyph-name="_FSHallmark" horiz-adv-x="754" 
d="M701 529h-630v74h630v-74zM619 388q0 13 -11 24l-8 6q-2 0 -5 2t-4 2l-18 6h-9q-20 0 -36 -9q-16 -10 -16 -22q0 -20 12 -29.5t36 -14.5l27 -6l12 -3l11 -3q8 -3 22 -5q1 0 4.5 -1t5.5 -1l9 -3q1 -1 4 -2t4 -2q2 -1 4.5 -2.5t3.5 -1.5q15 -9 24 -21q7 -14 9 -33
q1 -21 -8 -38q-35 -56 -127 -56q-39 0 -74 16t-52 48q-13 20 -13 49l73 -1q0 -3 3 -11q3 -20 30 -33q13 -7 36 -7q25 0 40 9q15 7 15 19q0 22 -60 36q-56 14 -92 33q-38 20 -38 63q0 61 80 87q24 6 52 6q94 0 122 -64q8 -22 8 -37h-76zM305 277h-151v-102h-83v313h265v-71
h-182v-70h151v-70zM329 213q0 16 10.5 26.5t27.5 10.5q16 0 30 -11q12 -11 12 -26t-12 -26q-13 -10 -30 -10q-15 0 -26 11q-12 11 -12 25zM700 61h-631v75h631v-75z" />
    <glyph glyph-name="_Fontastica" horiz-adv-x="754" 
d="M218 339h295v-79h-295v-147h-87q-1 1 -1 4v510h382v-78h-294v-210zM273 192h296v210h-296v79h296v146h87v-513h-383v78zM569 63q-5 -3 -5 -8q0 -7 4 -11q3 -4 9 -4q7 0 14 4l4 -4q-6 -9 -18 -9q-8 0 -16 5q-5 6 -7 16q-1 10 6 17q8 8 17 8q10 0 18 -8l-4 -6q-5 5 -12 5
h-2q-6 -2 -8 -5zM162 49h-20v-17h-11v44h32v-8h-21v-12h20v-7zM203 76q15 0 22 -12q6 -8 2 -20q-4 -11 -19 -13h-2q-1 -1 -2 -1l-2 -1q-6 0 -9 3q-14 6 -14 19q0 11 7 18q6 7 17 7zM279 46v30h9v-44h-3q-1 -1 -3 -1t-7 5l-8 12q-1 1 -2.5 3.5t-2.5 3.5l-4 4v-27h-10v44h8
q4 -2 5 -6l5 -5q4 -4 5 -6t2.5 -4t1.5 -3zM330 32h-9v36h-14v8h37v-8h-14v-36zM444 55q9 -1 9 -10q1 -8 -8 -13q-1 -1 -8 -1q-14 0 -21 7q1 1 1 2l1 1q0 2 1 3l14 -4h6q3 3 3 2q0 8 -10 9q-1 0 -2 1t-4 1q-7 1 -7 10q-1 7 6 11q8 2 10 2q11 0 18 -4l-4 -8q-1 1 -3 1
q-1 0 -2 1t-3 1q-1 0 -2 1h-6q-3 0 -3 -3q-2 -1 3 -6q1 0 3.5 -0.5t3.5 -1.5q0 -1 2 -1t2 -1zM492 32h-10v36h-14v8h38v-8h-14v-36zM524 76h11v-44h-11v44zM640 76l9 -21q3 -8 5 -12q2 -8 5 -11h-10l-4 9h-21l-4 -9h-10q10 20 18 44h12zM363 32h-9l18 42h10q2 -5 5 -10
q5 -8 9 -21q0 -1 1 -3t1 -3t0.5 -2.5t1.5 -2.5h-10q-1 1 -1 4l-2 5h-20q-1 -1 -1 -5q-1 -1 -1 -2zM216 54q0 6 -3 10q-4 4 -11 4q-1 -1 -3 -1q-4 -1 -8 -7t-1 -11q3 -10 13 -10q3 0 4 1q9 2 9 13v1zM369 49h15q-5 5 -5 12q-1 1 -1 2t-1 2zM627 49h14q-1 1 -1 4q-1 1 -1 2
t-1 2t-1 2t-1 2t-1 2t-1 2z" />
    </font>
</defs>
</svg>
