<?xml version="1.0" standalone="no"?>
<!DOCTYPE svg PUBLIC "-//W3C//DTD SVG 1.1//EN" "http://www.w3.org/Graphics/SVG/1.1/DTD/svg11.dtd" >
<svg xmlns="http://www.w3.org/2000/svg" xmlns:xlink="http://www.w3.org/1999/xlink" version="1.1">
<metadata>
Created by FontForge 20170731 at Thu Mar 21 16:38:48 2019
 By Aleksey,,,
Copyright \(c\) 2019 by Fontastica. All rights reserved.
</metadata>
<defs>
<font id="Vector-Bold" horiz-adv-x="401" >
  <font-face 
    font-family="Vector Bold"
    font-weight="700"
    font-stretch="normal"
    units-per-em="1000"
    panose-1="0 0 8 0 0 0 0 0 0 0"
    ascent="800"
    descent="-200"
    x-height="369"
    cap-height="706"
    bbox="10 -354 787 711"
    underline-thickness="50"
    underline-position="-175"
    unicode-range="U+000D-2122"
  />
<missing-glyph horiz-adv-x="557" 
d="M50 0h457v705h-457v-705zM423 646l-145 -235l-144 235h289zM447 566v-429l-132 216zM112 139v425l130 -211zM423 59h-287l143 234z" />
    <glyph glyph-name=".notdef" horiz-adv-x="557" 
d="M50 0h457v705h-457v-705zM423 646l-145 -235l-144 235h289zM447 566v-429l-132 216zM112 139v425l130 -211zM423 59h-287l143 234z" />
    <glyph glyph-name=".null" horiz-adv-x="0" 
 />
    <glyph glyph-name="nonmarkingreturn" horiz-adv-x="333" 
 />
    <glyph glyph-name="CR" unicode="&#xd;" horiz-adv-x="0" 
 />
    <glyph glyph-name="space" unicode=" " horiz-adv-x="378" 
 />
    <glyph glyph-name="exclam" unicode="!" horiz-adv-x="129" 
d="M39 282v-134v-14q0 -5 2 -15q6 -22 27 -22q12 0 19.5 8t7.5 20v553q0 11 -7.5 19t-19.5 8t-20 -7.5t-8 -19.5q0 -66 -0.5 -198t-0.5 -198zM33 28q0 -13 9.5 -23.5t24.5 -10.5t24.5 10t9.5 24t-10 23t-24 9t-24 -9.5t-10 -22.5z" />
    <glyph glyph-name="quotedbl" unicode="&#x22;" horiz-adv-x="177" 
d="M12 626l5 5q13 13 15 22q-11 8 -11 24q0 11 7.5 18.5t19.5 7.5q28 0 28 -36q0 -15 -9 -35q-2 -5 -9 -15.5t-8 -12.5l-4 -7zM93 626l5 5q13 13 15 22q-11 8 -11 24q0 11 7.5 18.5t19.5 7.5q28 0 28 -36q0 -15 -9 -35q-2 -5 -9 -15.5t-8 -12.5l-4 -7z" />
    <glyph glyph-name="numbersign" unicode="#" horiz-adv-x="364" 
d="M226 104l87 -3q13 0 20.5 8t7.5 20q0 22 -25 26q-17 2 -77 2q0 2 1.5 7.5t2.5 8.5q36 -3 71 -3q13 0 20.5 7.5t7.5 19.5q0 24 -25 26l-61 2q1 3 2.5 8.5t2.5 10.5t2 9q7 23 7 38q0 11 -9 19t-20 8q-18 0 -24 -19q-8 -22 -11 -39q-3 -11 -7 -33h-16q7 24 10 36q8 32 8 43
q0 10 -8.5 17.5t-18.5 7.5q-23 0 -27 -20l-20 -82q-58 2 -87 2q-12 0 -20 -7.5t-8 -19.5q0 -23 25 -26q12 -1 25 -1.5t28.5 -1t24.5 -0.5l-4 -14q-48 2 -72 2q-11 0 -19.5 -8t-8.5 -19q0 -22 25 -27q11 -2 36 -2h27q-1 -3 -3 -13t-4 -16q-8 -32 -8 -37q0 -11 9 -18t19 -7
q22 0 27 21l15 69q11 0 17 -1q-6 -19 -10 -35q-8 -32 -8 -43q0 -12 8.5 -19t21.5 -7q15 0 24 17q6 14 12 46q4 25 7 40zM170 174h17q-2 -10 -4 -15h-16z" />
    <glyph glyph-name="dollar" unicode="$" horiz-adv-x="361" 
d="M207 101q58 8 98 45.5t40 93.5q0 55 -41.5 93.5t-98.5 43.5v176q51 -8 83 -56l4 -6l44 31l-4 6q-51 70 -129 78v66q0 11 -8 19t-19 8q-12 0 -19.5 -7.5t-7.5 -19.5v-69q-54 -11 -90.5 -47.5t-36.5 -88.5q0 -53 37.5 -90t91.5 -47q0 -29 0.5 -87t0.5 -86q-33 8 -54.5 30.5
t-21.5 52.5q0 3 1 9t1 9v12l-51 10l-2 -6q-5 -13 -5 -25q0 -59 36 -98.5t96 -48.5l1 -74q0 -12 7.5 -19.5t20.5 -7.5q12 0 20 8t7 19zM78 467q0 29 20 51t51 31q1 -28 1 -83t1 -82q-31 9 -52 31.5t-21 51.5zM206 154v170q35 -6 60.5 -29.5t25.5 -54.5q0 -32 -25 -55.5
t-61 -30.5z" />
    <glyph glyph-name="percent" unicode="%" horiz-adv-x="412" 
d="M366 594q36 74 36 80q0 11 -8 19.5t-20 8.5t-24 -14q-15 -21 -28 -53q-4 -7 -12 -25.5t-13 -27.5q-6 -13 -28 -57.5t-57.5 -115.5t-61.5 -124q-127 -254 -127 -260q0 -11 8 -19.5t20 -8.5q14 0 23 13q4 6 6 10q0 1 2 4t2 5q3 8 44 89q25 49 92 184.5t105 209.5
q0 1 7.5 15.5t16.5 32.5zM222 621q0 27 -17 48t-46 21q-28 0 -46.5 -21.5t-18.5 -47.5t18 -47.5t47 -21.5t46 21t17 48zM171 621q0 -7 -3.5 -13t-8.5 -6t-8.5 6t-3.5 13q0 17 12 17t12 -17zM193 67q0 -27 17.5 -48.5t45.5 -21.5q29 0 47 21.5t18 48.5t-18 47.5t-47 20.5
q-28 0 -45.5 -21t-17.5 -47zM244 67q0 7 3.5 12t8.5 5q13 0 13 -17t-13 -17q-12 0 -12 17z" />
    <glyph glyph-name="ampersand" unicode="&#x26;" horiz-adv-x="483" 
d="M426 108q42 55 42 115q0 42 -18 76l-4 7q-1 1 -5 7l-3 6l-6 6q-6 8 -17 8q-12 0 -20.5 -7.5t-8.5 -18.5q0 -12 7 -20q22 -27 22 -63q0 -28 -20 -64q-22 35 -79 130t-88 146l49 51q31 32 31 90q0 46 -29 88t-77 42q-41 0 -71.5 -36.5t-30.5 -75.5q0 -42 14.5 -75.5
t44.5 -75.5q-8 -10 -28 -31t-35.5 -39.5t-28.5 -35.5q-54 -74 -54 -132q0 -80 59 -142t143 -62q97 0 171 64q14 -25 15 -26q13 -15 15 -17q7 -9 17 -9q14 0 21.5 8t7.5 21v3l-2 1v1v1q-1 1 -1 2q-1 2 -2 4.5t-2 2.5q-12 24 -29 50zM199 652q25 0 40 -25t15 -53
q0 -27 -19 -53q-6 -7 -20 -21l-17 -17q-22 34 -29 48q-14 31 -14 60q0 18 14.5 39.5t29.5 21.5zM68 208q0 64 120 189q45 -71 170 -283q-63 -58 -146 -58q-59 0 -101.5 47t-42.5 105z" />
    <glyph glyph-name="quotesingle" unicode="'" horiz-adv-x="115" 
d="M33 287q-4 -5 -10 -15l-3 -4l41 -35l4 6q32 43 32 72q0 42 -36 42q-15 0 -23.5 -9.5t-8.5 -23.5q0 -15 9 -23q-2 -5 -5 -10z" />
    <glyph glyph-name="parenleft" unicode="(" horiz-adv-x="242" 
d="M206 648h13v55h-13q-44 0 -78 -27.5t-53 -67.5t-31.5 -91t-16.5 -91t-4 -75q0 -88 24.5 -183t78.5 -139q37 -30 74 -30h19v54h-13q-67 0 -102 118q-25 82 -25 180q0 92 25 178q37 119 102 119z" />
    <glyph glyph-name="parenright" unicode=")" horiz-adv-x="239" 
d="M51 48h-21v-54h21q37 0 67.5 24t49.5 61.5t30.5 72t16.5 66.5q11 59 11 131q0 71 -11 130q-6 32 -17 66t-30 72t-49.5 62t-67.5 24h-21v-54h14q66 0 103 -120q26 -86 26 -180q0 -131 -41 -221q-38 -80 -81 -80z" />
    <glyph glyph-name="asterisk" unicode="*" horiz-adv-x="354" 
d="M248 579q1 1 26 23q3 4 10 11.5t10 10.5q1 2 2.5 3.5l3 3t1.5 2.5q4 6 4 10q0 25 -35 25h-2l-2 -1q-23 -16 -37 -30l-22 -21v58q0 11 -7 19.5t-18 8.5q-24 0 -28 -25q-3 -20 -3 -62q-34 36 -45 43l-1 1h-2q-1 0 -2 1h-2q-6 2 -10 2q-10 0 -18 -7.5t-8 -17.5q0 -3 2 -9
q2 -4 6 -8q1 -2 16 -19q6 -7 20 -21q-44 2 -66 2q-12 0 -20 -8t-8 -20q0 -11 8.5 -18.5t19.5 -7.5q48 0 73 -1q-14 -10 -30 -27q-10 -9 -23 -24q-7 -10 -8 -11q-3 -5 -3 -10q0 -11 8.5 -19t19.5 -8q4 0 10 3q9 6 10 7l24 21q4 4 12.5 12t11.5 11q1 3 4 4q0 -14 -0.5 -41
t-0.5 -40q0 -12 8 -19t20 -7q18 0 25 18q3 9 3 27v58q23 -24 53 -51q2 -3 8 -7l6 -5l2 -2h3q33 0 33 25q0 5 -4 11l-8 12q-4 4 -13 13.5t-13 14.5l-32 32q25 -1 75 -1q13 0 20.5 7.5t7.5 18.5q0 25 -33 29q-8 1 -25 1h-19q-3 0 -9 -0.5t-9 -0.5z" />
    <glyph glyph-name="plus" unicode="+" horiz-adv-x="371" 
d="M212 197q0 80 1 120q37 -1 111 -1q12 0 20 8t8 19q0 18 -18 25q-9 3 -28 3h-90v96q0 10 -7.5 17.5t-18.5 7.5q-23 0 -28 -20q-2 -10 -2 -15v-14v-71q-74 2 -111 2q-13 0 -20.5 -8t-7.5 -19t7.5 -19t20.5 -8q74 0 111 -1q-2 -41 -2 -122q0 -11 8 -18.5t20 -7.5t19 7.5
t7 18.5z" />
    <glyph glyph-name="comma" unicode="," horiz-adv-x="124" 
d="M43 -3l-12 -11l-5 -5l46 -39l4 7q3 7 10 17.5t10 15.5q10 20 10 39q0 42 -34 42q-15 0 -24.5 -9t-9.5 -23q0 -15 10 -25q-1 -2 -5 -9z" />
    <glyph glyph-name="hyphen" unicode="-" horiz-adv-x="371" 
d="M52 375q-12 0 -20 -7.5t-8 -18.5q0 -27 36 -27q21 0 65 -0.5t66 -0.5q135 -3 136 -3q13 0 20.5 8t7.5 19q0 17 -15 24q-1 1 -13 3h-12q-44 0 -132 1.5t-131 1.5z" />
    <glyph glyph-name="period" unicode="." horiz-adv-x="115" 
d="M26 35q0 -14 9.5 -23t24.5 -9q14 0 24 9.5t10 22.5q0 14 -9.5 23.5t-24.5 9.5q-16 0 -25 -9t-9 -24z" />
    <glyph glyph-name="slash" unicode="/" horiz-adv-x="426" 
d="M25 31q0 -11 8.5 -19t20.5 -8q14 0 23 15q24 45 176 346.5t152 308.5q0 11 -9 19.5t-20 8.5q-16 0 -23 -15l-173 -339q-155 -310 -155 -317z" />
    <glyph glyph-name="zero" unicode="0" horiz-adv-x="534" 
d="M175 26q47 -30 98 -30q50 0 92.5 25t70 64t46.5 87.5t27.5 95t8.5 87.5q0 52 -14 110.5t-41.5 115t-77.5 93.5t-112 37q-63 0 -112.5 -36.5t-77 -93t-41.5 -115t-14 -111.5q0 -97 36.5 -189.5t110.5 -139.5zM203 637q35 22 70 22q36 0 69 -22q60 -38 90 -119t30 -163
q0 -83 -30 -163t-90 -120q-33 -22 -69 -22t-71 22q-59 38 -88.5 119.5t-29.5 163.5t29.5 163t89.5 119z" />
    <glyph glyph-name="one" unicode="1" horiz-adv-x="114" 
d="M86 684q1 11 -7.5 18t-19.5 7q-12 0 -19.5 -7t-7.5 -18l-5 -662q0 -11 8 -19t20 -8t19.5 8t8.5 19z" />
    <glyph glyph-name="two" unicode="2" horiz-adv-x="527" 
d="M486 -3q12 0 20 8t8 19t-8.5 19t-19.5 8h-404v187h148q94 0 154 71t60 162t-60.5 162t-154.5 71q-69 0 -122.5 -43t-75.5 -108l-4 -11l52 -20l2 7l2 8q15 48 55.5 80.5t90.5 32.5q70 0 115 -54.5t45 -124.5t-45 -125t-115 -55h-113q-40 0 -60 -1q-1 0 -3 0.5t-3 0.5
q-11 0 -17.5 -9.5t-6.5 -18.5v-239q0 -11 8 -19t20 -8h432z" />
    <glyph glyph-name="three" unicode="3" horiz-adv-x="466" 
d="M191 325h1v-1h7h49q61 -6 105.5 -46.5t44.5 -96.5q0 -58 -44.5 -95.5t-107.5 -37.5q-127 0 -166 124l-4 12l-52 -12l2 -7q21 -78 78.5 -124.5t141.5 -46.5t145 53t61 134q0 54 -30.5 99.5t-81.5 71.5q50 26 81 71.5t31 99.5q0 80 -61 133t-145 53q-79 0 -136.5 -42.5
t-79.5 -115.5l-6 -20l52 -12l2 6q16 61 60 96t108 35q62 0 107 -37.5t45 -95.5q0 -45 -32.5 -83t-78.5 -52q-30 -10 -89 -10h-7v-53z" />
    <glyph glyph-name="four" unicode="4" horiz-adv-x="602" 
d="M553 347l-156 1l2 334q0 11 -8 19t-20 8t-17 -6l-2 -2v-1l-1 -2q-2 -2 -3 -4l-310 -352q-5 -5 -7 -8q-3 -4 -3 -12q0 -11 8 -18t20 -7l285 -2l-2 -265q0 -11 8 -19t20 -8q13 0 20.5 7.5t7.5 19.5l2 265h156q11 0 18.5 7t7.5 18q0 25 -26 27zM116 348l227 260l-2 -260
h-225z" />
    <glyph glyph-name="five" unicode="5" horiz-adv-x="514" 
d="M76 419l9 -2l2 5q20 43 63.5 70.5t92.5 27.5q90 0 144.5 -74.5t54.5 -165.5q0 -83 -46.5 -146.5t-127.5 -79.5h-3h-1h-14q-57 0 -101.5 33.5t-70.5 87.5l-6 12l-48 -23l6 -12q33 -67 90 -109.5t130 -42.5q110 0 178.5 87t68.5 194q0 69 -29 135.5t-89 112.5t-136 46
q-82 0 -148 -58l2 137l360 -1q11 0 18.5 8.5t7.5 18.5q0 11 -7 19t-19 8l-386 1q-13 0 -20.5 -8t-7.5 -19l-4 -238q0 -26 31 -26q2 0 6 2z" />
    <glyph glyph-name="six" unicode="6" horiz-adv-x="514" 
d="M364 710q-100 0 -179 -57t-119 -142t-40 -177q0 -72 29.5 -146.5t92.5 -129.5t143 -55q89 0 150.5 61t61.5 146q0 83 -63 143.5t-150 60.5q-70 0 -125.5 -40.5t-76.5 -104.5q-6 26 -6 66q0 124 79 223.5t203 99.5q66 0 86 -17l8 -7l20 56l-7 2q-63 18 -107 18zM291 56
q-63 0 -111 44.5t-48 104.5q0 64 46 110t112 46q64 0 110.5 -44t46.5 -106q0 -63 -45.5 -109t-110.5 -46z" />
    <glyph glyph-name="seven" unicode="7" horiz-adv-x="470" 
d="M445 644q9 27 9 36q0 30 -26 30q-122 1 -365 1q-12 0 -19 -7t-7 -18q0 -12 7.5 -19.5t20.5 -7.5l327 -2l-96 -316q-12 -40 -35 -120t-35 -120q-7 -18 -12 -35q-8 -26 -8 -35q-1 -1 -1 -5q0 -27 26 -27q20 0 27 20l103 345l72 242q2 6 12 38z" />
    <glyph glyph-name="eight" unicode="8" horiz-adv-x="477" 
d="M19 212q0 -87 65.5 -150t155.5 -63q91 0 156 63t65 150q0 61 -33.5 114t-90.5 80q34 22 54 57.5t20 75.5q0 67 -48.5 115t-118.5 48t-118 -48t-48 -115q0 -83 70 -131q-58 -26 -93.5 -80t-35.5 -116zM244 647q46 0 78.5 -32t32.5 -76t-32.5 -76t-78.5 -32
q-47 0 -79.5 31.5t-32.5 76.5t32.5 76.5t79.5 31.5zM75 212q0 67 48 114.5t117 47.5q70 0 119 -47.5t49 -114.5q0 -66 -49 -112.5t-119 -46.5q-69 0 -117 46.5t-48 112.5z" />
    <glyph glyph-name="nine" unicode="9" horiz-adv-x="517" 
d="M28 496q0 -83 62.5 -143.5t149.5 -60.5q67 0 122 37.5t78 96.5q3 -25 3 -50q0 -125 -82 -224.5t-207 -99.5q-34 0 -99 21l-6 2l-20 -46l5 -3q19 -13 55.5 -20.5t64.5 -7.5q101 0 181.5 57t121.5 143t41 179q0 53 -17 109t-48 105t-82 80.5t-112 31.5q-88 0 -149.5 -61
t-61.5 -146zM84 497q0 63 44.5 107.5t110.5 44.5t112.5 -45t46.5 -108q0 -62 -46.5 -106.5t-111.5 -44.5t-110.5 45t-45.5 107z" />
    <glyph glyph-name="colon" unicode=":" horiz-adv-x="129" 
d="M102 480q0 14 -10 23.5t-24 9.5q-15 0 -24.5 -10t-9.5 -23q0 -14 9.5 -24t24.5 -10q14 0 24 10t10 24zM36 31q0 -14 9.5 -24t24.5 -10t24.5 10t9.5 24t-10 23t-24 9q-15 0 -24.5 -9t-9.5 -23z" />
    <glyph glyph-name="semicolon" unicode=";" horiz-adv-x="128" 
d="M106 477q0 13 -10 22.5t-24 9.5t-23 -9.5t-9 -22.5t8.5 -24t23.5 -11t24.5 10t9.5 25zM38 -10q-1 -1 -2.5 -3.5t-2.5 -3.5l-3 -5l43 -36l4 7q4 8 11 18.5l9 13.5q10 18 10 39q0 42 -35 42q-14 0 -23 -9.5t-9 -22.5q0 -15 9 -24q-1 -2 -5 -9q-2 -3 -6 -7z" />
    <glyph glyph-name="less" unicode="&#x3c;" horiz-adv-x="337" 
d="M44 352q-21 -15 -21 -31q0 -13 12 -21q26 -21 63 -46q10 -7 32 -20.5t32 -20.5q43 -30 77 -52q9 -5 16 -10q5 -6 13 -10q10 -5 19 -5q11 0 19.5 7.5t8.5 18.5q0 2 -4 14q-4 7 -104 73q-38 26 -108 72l107 72q96 64 104 75q5 5 5 15t-8.5 18t-19.5 8t-31 -13
q-18 -14 -24 -18l-158 -108q-2 -1 -13 -7.5t-17 -10.5z" />
    <glyph glyph-name="equal" unicode="=" horiz-adv-x="388" 
d="M330 346q12 0 20 6.5t8 18.5q0 28 -28 28q-46 0 -137 2t-137 2q-28 0 -28 -28q0 -11 8 -18t20 -7q46 0 137 -2t137 -2zM56 334q-12 0 -20 -7t-8 -19t7.5 -19.5t20.5 -7.5q46 0 137 -2t137 -2q13 0 20.5 7.5t7.5 19.5q0 16 -15 23q-11 5 -26 5q-43 0 -130 1t-131 1z" />
    <glyph glyph-name="greater" unicode="&#x3e;" horiz-adv-x="347" 
d="M42 181q-13 -9 -13 -23q0 -10 8.5 -18t19.5 -8q4 0 6 1l2 1l4 2q12 6 15 8l38 25q12 8 25.5 17.5t22 16t10.5 7.5q22 15 127 86l4 4q4 2 5 4q5 5 5 13q0 14 -13 23q-8 7 -19 14q-11 8 -20 13l-79 53q-7 5 -51 35.5t-68 45.5q-7 4 -14 4q-11 0 -19.5 -8t-8.5 -18
q0 -11 8 -18q16 -14 52 -38l53 -35q34 -24 104 -70z" />
    <glyph glyph-name="question" unicode="?" horiz-adv-x="475" 
d="M242 97q5 10 5 25q0 131 2 168q87 8 146.5 68.5t59.5 144.5q0 83 -60.5 141t-146.5 58t-142 -51.5t-78 -133.5l-2 -8l56 -8l1 7q7 58 55.5 98.5t109.5 40.5q64 0 108 -42t44 -103q0 -65 -49 -112.5t-117 -47.5q-14 0 -28 3l-7 1l-1 -7q-5 -38 -5 -90q0 -24 -1 -70.5
t-1 -70.5q0 -11 7 -18t19 -7q19 0 25 14zM182 33q0 -13 9.5 -23t23.5 -10q15 0 25 9.5t10 23.5t-10.5 22.5t-24.5 8.5t-23.5 -9t-9.5 -22z" />
    <glyph glyph-name="at" unicode="@" horiz-adv-x="415" 
d="M368 85l-18 14q23 14 35.5 40t12.5 53q0 72 -56.5 125t-132.5 53q-77 0 -131.5 -54.5t-54.5 -128.5q0 -75 54.5 -129.5t131.5 -54.5q42 0 84.5 19t64.5 51l6 7zM294 87q-37 -31 -85 -31q-54 0 -92 39t-38 92q0 52 38 90.5t92 38.5q48 0 86 -30q-1 0 -4 0.5t-4 0.5
q-13 0 -21 -8q-29 18 -61 18q-46 0 -77.5 -32.5t-31.5 -76.5t31.5 -76.5t77.5 -32.5q33 0 60 19q5 -6 16 -9q8 -2 13 -2zM314 267q28 -33 28 -77q0 -16 -8 -30.5t-21 -18.5q2 80 2 119q0 2 -0.5 4t-0.5 3zM152 188q0 23 15 40t38 17q22 0 36.5 -17t14.5 -40t-14.5 -40
t-36.5 -17t-37.5 17t-15.5 40z" />
    <glyph glyph-name="A" unicode="A" horiz-adv-x="748" 
d="M214 313h305l150 -298q8 -15 23 -15q12 0 20.5 7.5t8.5 18.5q0 8 -62 132l-74 145l-151 302q-3 5 -19 37.5t-25 48.5q-9 15 -24 15t-24 -15q-9 -16 -25 -48.5t-19 -37.5l-151 -302l-74 -145q-62 -122 -62 -132q0 -11 8 -19t20 -8q15 0 24 15q11 19 50 97q17 33 50.5 101
t50.5 101zM492 367h-253q84 168 127 252z" />
    <glyph glyph-name="B" unicode="B" horiz-adv-x="539" 
d="M168 0q19 0 57 -1t57 -1q86 0 157.5 54.5t71.5 135.5q0 53 -30.5 95t-81.5 67q54 25 88.5 68t34.5 98q0 86 -72.5 138.5t-164.5 54.5q-37 1 -222 1q-30 0 -30 -29l-1 -102q-4 -368 -4 -553q0 -12 7.5 -19.5t20.5 -7.5q18 0 55.5 0.5t56.5 0.5zM455 188q0 -57 -53.5 -96.5
t-115.5 -39.5q-34 0 -101.5 0.5t-100.5 0.5q2 402 4 604l197 -3q72 -2 126.5 -38t54.5 -100q0 -56 -53 -96t-114 -40h-159q-11 0 -19.5 -7.5t-8.5 -18.5t8 -19.5t20 -8.5h136q68 0 123.5 -39t55.5 -99z" />
    <glyph glyph-name="C" unicode="C" horiz-adv-x="710" 
d="M359 0q118 0 206.5 74.5t118.5 186.5l2 6l-52 15l-4 -13q-13 -41 -25 -65q-37 -68 -103 -109.5t-143 -41.5q-121 0 -200.5 91t-79.5 210t79.5 209t200.5 90q148 0 241 -143l4 -6l44 27l-3 6q-1 1 -3 5l-3 7q-110 157 -280 157q-96 0 -174 -51t-119.5 -131.5t-41.5 -169.5
q0 -140 95.5 -247t239.5 -107z" />
    <glyph glyph-name="D" unicode="D" horiz-adv-x="597" 
d="M61 1q31 0 93.5 -1t93.5 -1q64 0 130 34q91 47 140.5 134.5t49.5 188.5q0 141 -93 243.5t-239 107.5q-58 2 -173 2q-31 0 -31 -29l-4 -653q0 -12 7 -18l3 -2q1 -1 2 -1l3 -3l2 -3h16v1zM515 356q0 -118 -78.5 -210t-198.5 -92h-154l3 601q105 0 157 -2
q118 -4 194.5 -92.5t76.5 -204.5z" />
    <glyph glyph-name="E" unicode="E" horiz-adv-x="586" 
d="M437 377h-352l2 271h446q12 0 19.5 8.5t7.5 18.5t-8 19t-19 9h-472q-28 0 -28 -27l-5 -646q0 -13 8.5 -22t22.5 -9h463q12 0 19 8.5t7 18.5t-7.5 18.5t-18.5 8.5h-440l4 270h351q12 0 18.5 8.5t6.5 19.5q0 10 -7 18t-18 8z" />
    <glyph glyph-name="F" unicode="F" horiz-adv-x="650" 
d="M622 678q0 11 -8 19t-20 8h-526q-13 0 -21.5 -7.5t-8.5 -19.5q0 -109 -2.5 -327t-2.5 -327q0 -11 8 -18t19 -7q12 0 19.5 8t8.5 19l2 297h400q12 0 20 8t8 20q0 11 -8.5 18.5t-19.5 7.5h-399l2 274h501q12 0 20 8t8 19z" />
    <glyph glyph-name="G" unicode="G" horiz-adv-x="750" 
d="M24 353q0 -142 99 -247.5t246 -105.5t246.5 105.5t99.5 247.5q0 19 -3 36h-360q-11 0 -19.5 -7t-8.5 -18t8 -19.5t20 -8.5h308q-7 -116 -89.5 -199t-201.5 -83q-122 0 -206 90t-84 209t83.5 209t206.5 90q97 0 166.5 -52.5t107.5 -143.5l3 -6l48 23l-2 6
q-32 98 -123.5 162.5t-199.5 64.5q-147 0 -246 -106t-99 -247z" />
    <glyph glyph-name="H" unicode="H" horiz-adv-x="726" 
d="M697 679q0 11 -7 19t-19 8t-19.5 -8.5t-7.5 -18.5l-2 -298h-563l2 298q1 11 -7 19t-20 8t-19.5 -8t-7.5 -19q0 -109 -2.5 -327t-2.5 -327q0 -10 8 -17.5t19 -7.5q25 0 27 27l2 300h563l-2 -303q0 -10 7.5 -18t18.5 -8t19 7.5t8 18.5z" />
    <glyph glyph-name="I" unicode="I" horiz-adv-x="728" 
d="M706 679q0 11 -7.5 19t-19.5 8h-625q-12 0 -19.5 -8t-7.5 -19t7.5 -19t19.5 -8l264 -1l-4 -606h-265q-11 0 -19.5 -8t-8.5 -19t8 -19t20 -8h624q13 0 20.5 7.5t7.5 19.5t-7.5 19.5t-20.5 7.5h-306l6 607h306q12 0 19.5 8t7.5 19z" />
    <glyph glyph-name="J" unicode="J" horiz-adv-x="752" 
d="M736 679q0 11 -7.5 19t-19.5 8h-671q-12 0 -20 -8t-8 -19t8 -19t20 -8h387l-4 -455q-1 -67 -51.5 -106t-124.5 -39q-77 0 -126.5 45t-49.5 118v7h-54v-7q0 -95 65.5 -156t164.5 -61q96 0 163 54t68 145l5 455h228q12 0 19.5 8.5t7.5 18.5z" />
    <glyph glyph-name="K" unicode="K" horiz-adv-x="676" 
d="M614 702h-8l-526 -308l2 287q0 11 -7.5 19t-19.5 8t-19.5 -8t-7.5 -19l-4 -658q0 -11 7.5 -19t19.5 -8q25 0 27 27l1 279l519 -304h2q34 0 34 27q0 14 -14 23l-514 300l522 303q14 8 14 22q0 11 -8 20t-20 9z" />
    <glyph glyph-name="L" unicode="L" horiz-adv-x="705" 
d="M651 -1q13 0 19.5 8t6.5 19q0 10 -7.5 18.5t-18.5 8.5h-568l4 627q1 10 -7 18t-19 8q-12 0 -20 -7.5t-8 -18.5l-5 -652q0 -10 7.5 -19.5t19.5 -9.5h596z" />
    <glyph glyph-name="M" unicode="M" horiz-adv-x="774" 
d="M751 673q0 11 -8 19.5t-20 8.5q-13 0 -21 -12q-239 -288 -264 -319q-38 -49 -43 -55q-194 230 -236 282q-10 12 -29.5 36.5t-29.5 36.5q-16 20 -17 21q-4 4 -12 10q-7 5 -14 5q-12 0 -20 -8t-8 -19l-5 -657q0 -11 8 -18.5t20 -7.5q26 0 28 26l3 583l288 -346
q8 -10 21 -10q12 0 20 10l283 339l-5 -576q0 -11 8.5 -18.5t19.5 -7.5q12 0 20 7.5t8 18.5z" />
    <glyph glyph-name="N" unicode="N" horiz-adv-x="754" 
d="M735 673q0 11 -8 19.5t-20 8.5q-11 0 -19 -8.5t-9 -19.5l-4 -583l-605 608q-9 7 -19 7q-13 0 -21 -8.5t-8 -20.5l-5 -650q0 -11 8 -19t20 -8t19.5 8t8.5 19l4 588l601 -603q12 -12 24 -12t20 7.5t8 18.5z" />
    <glyph glyph-name="O" unicode="O" horiz-adv-x="774" 
d="M15 350q0 -146 108.5 -249t261.5 -103t262 102.5t109 249.5q0 145 -109.5 248.5t-261.5 103.5t-261 -103.5t-109 -248.5zM71 350q0 123 92.5 210t221.5 87t222 -87t93 -210q0 -124 -92.5 -211t-222.5 -87t-222 87t-92 211z" />
    <glyph glyph-name="P" unicode="P" horiz-adv-x="561" 
d="M85 233q23 0 63.5 -1t73.5 -1.5t62 -0.5q99 0 168.5 69.5t69.5 165.5t-67 167t-167 71q-38 0 -112 1.5t-111 1.5q-13 0 -22.5 -7.5t-9.5 -20.5l-5 -654q0 -11 8 -19t20 -8t19.5 8t8.5 19zM466 465q0 -75 -54 -128.5t-131 -53.5q-97 0 -195 3l2 366q196 -3 197 -3
q79 -3 130 -55.5t51 -128.5z" />
    <glyph glyph-name="Q" unicode="Q" horiz-adv-x="765" 
d="M664 9q1 -1 3 -1l5 -2q34 -2 34 26q0 6 -4 10q-1 2 -4 5t-4 5q-10 10 -24 21q-11 10 -35 28q106 100 106 251q0 142 -103 246.5t-251 104.5t-251 -104.5t-103 -246.5t102.5 -247t251.5 -105q112 0 206 66q35 -35 71 -57zM438 256q-12 0 -21 -8.5t-9 -19.5q0 -10 9 -19
q19 -16 41 -34t49 -40t42 -34q-73 -47 -162 -47q-125 0 -212 88.5t-87 209.5t87 208.5t212 87.5q124 0 211 -88t87 -208q0 -131 -92 -217q-4 3 -17.5 14.5t-29 24.5t-28.5 24q-6 5 -17 13.5t-19 15t-14 10.5q-9 7 -18 13q-2 2 -6 4q-3 2 -6 2z" />
    <glyph glyph-name="R" unicode="R" horiz-adv-x="539" 
d="M284 230q99 0 168.5 70t69.5 165q0 97 -66.5 166t-167.5 72q-50 2 -226 2q-12 0 -20.5 -7.5t-8.5 -19.5q0 -108 -2.5 -324.5t-2.5 -325.5q0 -31 28 -31q12 0 20 7.5t8 19.5q0 127 1 190q14 -8 43.5 -25t73.5 -42.5t74 -42.5q172 -100 182 -100q12 0 20 8t8 19
q0 15 -13 23l-311 178q82 -2 122 -2zM86 286l2 366q196 -3 197 -3q80 -3 130.5 -54.5t50.5 -129.5q0 -75 -54 -128.5t-131 -53.5q-97 0 -195 3z" />
    <glyph glyph-name="S" unicode="S" horiz-adv-x="602" 
d="M51 50q-11 0 -19.5 -8t-8.5 -19q0 -27 36 -27q51 0 152.5 -1t152.5 -1q88 0 152 53t64 137q0 82 -61 137t-147 55h-59q-8 0 -24 -0.5t-24 -0.5q-69 0 -121 37t-52 99q0 61 50 100t117 39h167h17q13 0 20 1q27 6 27 28q0 11 -8 19t-20 8q-34 0 -102.5 -1t-103.5 -1
q-86 0 -152.5 -55.5t-66.5 -137.5t64.5 -134.5t150.5 -52.5h133q58 -5 99.5 -45.5t41.5 -94.5q0 -39 -23.5 -72t-61.5 -50q-32 -14 -56 -14q-55 0 -167 1t-167 1z" />
    <glyph glyph-name="T" unicode="T" horiz-adv-x="759" 
d="M739 679q0 11 -8 19t-20 8h-671q-12 0 -19.5 -8t-7.5 -19t7.5 -19t19.5 -8h297l-4 -627q0 -11 8 -18.5t20 -7.5t20 7.5t8 18.5l4 627h318q12 0 20 8t8 19z" />
    <glyph glyph-name="U" unicode="U" horiz-adv-x="770" 
d="M26 681q0 -58 -1 -174.5t-1 -174.5q0 -64 32 -133q43 -91 131 -146.5t192 -55.5q150 0 256 103t106 247q0 56 -0.5 168t-0.5 168q0 11 -8.5 18.5t-19.5 7.5t-19.5 -7.5t-8.5 -18.5v-179q0 -94 2 -142h-2v-6q0 -128 -86.5 -216.5t-218.5 -88.5q-89 0 -163 47t-110 125
q-28 55 -26 109l1 349q0 11 -7.5 19t-19.5 8t-20 -8t-8 -19z" />
    <glyph glyph-name="V" unicode="V" horiz-adv-x="770" 
d="M746 676q0 11 -9 19t-20 8q-16 0 -23 -14l-309 -601l-309 601q-7 14 -24 14q-12 0 -20 -8t-8 -19q0 -6 74 -150q83 -162 86 -168l177 -342q7 -14 24 -14q16 0 24 13q5 7 19 36l41 80q5 10 26.5 52t57.5 111t63 122q130 254 130 260z" />
    <glyph glyph-name="W" unicode="W" horiz-adv-x="783" 
d="M82 9l314 375l312 -370q7 -9 19 -9t20.5 8.5t8.5 19.5l-5 644q0 11 -8 19t-20 8t-20 -8t-8 -19l5 -570l-284 336q-7 10 -20 10t-20 -10l-289 -342l-3 576q-1 11 -8.5 19t-19.5 8t-20 -8t-8 -19l5 -650q0 -11 8.5 -19t20.5 -8q11 0 20 9z" />
    <glyph glyph-name="X" unicode="X" horiz-adv-x="770" 
d="M718 0q12 0 20 8t8 19t-8 19l-314 310l314 308q8 8 8 19q0 10 -8.5 18t-19.5 8q-12 0 -20 -8l-313 -308l-313 308q-8 8 -20 8q-11 0 -19.5 -7.5t-8.5 -18.5t8 -19l314 -308l-314 -310q-8 -8 -8 -19t8 -19t20 -8q11 0 20 9l313 308l313 -308q9 -9 20 -9z" />
    <glyph glyph-name="Y" unicode="Y" horiz-adv-x="765" 
d="M747 681q0 11 -8 19t-20 8t-19 -7l-310 -271l-321 275q-7 5 -13 5q-32 0 -32 -26q0 -9 7 -16q4 -5 27 -25q10 -8 28 -24q99 -85 104 -89q19 -16 54 -46.5t63.5 -55t53.5 -45.5l-5 -355q0 -11 8 -19t20 -8t20 8t8 19l4 352l322 281q9 9 9 20z" />
    <glyph glyph-name="Z" unicode="Z" horiz-adv-x="745" 
d="M709 4q12 0 20 8t8 19q0 24 -28 26l-593 3l611 596q9 7 9 19q0 10 -9 18.5t-20 9.5l-658 3q-12 1 -20 -7t-8 -20q0 -11 7.5 -19t20.5 -8l593 -3l-610 -595q-9 -9 -9 -19q0 -11 8 -19t20 -8z" />
    <glyph glyph-name="bracketleft" unicode="[" horiz-adv-x="316" 
d="M233 51h-127l3 594h129q28 0 28 26q0 12 -8 20t-20 8h-154q-13 0 -21.5 -7.5t-8.5 -20.5q0 -107 -2 -323t-2 -324q0 -11 8.5 -19t20.5 -8h154q13 0 20.5 7.5t7.5 19.5t-7.5 19.5t-20.5 7.5z" />
    <glyph glyph-name="backslash" unicode="\" horiz-adv-x="422" 
d="M51 702q-12 0 -20 -9t-8 -20q0 -9 36 -77l42 -84l196 -390q13 -26 25 -53q8 -18 13 -27q7 -15 15 -27q10 -13 24 -13q12 0 20 9t8 19q0 5 -35 75q-7 13 -16.5 32.5t-15 31t-6.5 14.5l-194 383q-4 9 -18.5 37.5t-21.5 44.5q-2 3 -7 14t-8 16q-4 6 -12 16q-8 8 -17 8z" />
    <glyph glyph-name="bracketright" unicode="]" horiz-adv-x="262" 
d="M32 27q0 -12 7.5 -19.5t20.5 -7.5h155q12 0 20 8t8 19q0 94 -1.5 280.5t-1.5 280.5q0 7 0.5 21.5t0.5 22.5q0 30 -3 44q-4 26 -28 26h-156q-12 0 -20 -8t-8 -20q0 -11 8 -19t20 -8h132q3 -592 3 -593h-129q-12 0 -20 -7.5t-8 -19.5z" />
    <glyph glyph-name="asciicircum" unicode="^" horiz-adv-x="330" 
d="M77 500l92 128l90 -128q9 -12 24 -12q11 0 19.5 8t8.5 19q0 2 -2 6q0 1 -3 6l-9 16q-8 12 -30 42q-35 49 -54 73q-1 2 -11 17q-10 14 -12 16q-9 11 -21 11q-13 0 -25 -14l-63 -87q-55 -80 -55 -87q0 -12 8.5 -19t20.5 -7t22 12z" />
    <glyph glyph-name="underscore" unicode="_" horiz-adv-x="371" 
d="M42 -13q13 -4 30 -4h253q13 0 20.5 8t7.5 20q0 17 -16 24q-12 4 -27 4q-2 0 -6 -0.5t-6 -0.5h-247q-12 0 -20 -7t-8 -18q0 -18 19 -26z" />
    <glyph glyph-name="a" unicode="a" horiz-adv-x="390" 
d="M365 27l4 299q0 11 -8 19t-20 8t-19.5 -8t-7.5 -19v-3q-51 49 -117 49q-75 0 -125 -54t-50 -126q0 -71 50 -125.5t125 -54.5q66 0 113 45q0 -20 1 -30q0 -27 26 -27q13 0 20.5 7.5t7.5 19.5zM77 192q0 51 34 88.5t86 37.5q32 0 59.5 -19t42.5 -48q14 -26 14 -41v-27
q0 -47 -34.5 -83t-81.5 -36q-51 0 -85.5 39t-34.5 89z" />
    <glyph glyph-name="b" unicode="b" horiz-adv-x="393" 
d="M75 64q50 -53 123 -53q75 0 124.5 54t49.5 125q0 72 -49.5 126t-124.5 54q-72 0 -121 -52l1 365q1 11 -7 18.5t-20 7.5t-19.5 -7.5t-7.5 -18.5l-5 -654q0 -11 8 -19t20 -8t20 8t8 19v35zM79 190q0 50 34.5 88t84.5 38q51 0 84.5 -38t33.5 -88q0 -49 -34 -88.5t-84 -39.5
t-84.5 39t-34.5 89z" />
    <glyph glyph-name="c" unicode="c" horiz-adv-x="390" 
d="M196 6q67 0 110.5 39.5t62.5 102.5l2 7l-55 12l-2 -13q-1 -1 -1 -3v-1q-13 -41 -44 -66.5t-73 -25.5q-52 0 -86.5 39t-34.5 91q0 50 35 89t86 39q31 0 60 -16t42 -41q2 -2 2 -4q2 -4 4 -6l3 -6l47 28l-4 6q-63 93 -154 93q-75 0 -126 -54.5t-51 -127.5t51 -127.5
t126 -54.5z" />
    <glyph glyph-name="d" unicode="d" horiz-adv-x="393" 
d="M194 8q71 0 122 54v-33q0 -11 8 -19t20 -8t20 8t8 19l-5 652q0 11 -7.5 19t-20.5 8q-26 0 -26 -27q0 -243 1 -365q-49 51 -120 51q-74 0 -124.5 -54t-50.5 -125q0 -72 50 -126t125 -54zM75 188q0 49 34.5 87t84.5 38t84 -37.5t34 -87.5t-34 -89t-84 -39q-51 0 -85 38.5
t-34 89.5z" />
    <glyph glyph-name="e" unicode="e" horiz-adv-x="415" 
d="M83 151h316v25q0 80 -53 136t-136 56q-77 0 -131.5 -54.5t-54.5 -128.5t54.5 -129t131.5 -55q120 0 177 115l3 6l-54 8l-3 -5q-22 -38 -50 -54.5t-73 -16.5t-80.5 27.5t-46.5 69.5zM342 206h-261q8 45 44.5 76.5t84.5 31.5q49 0 86.5 -31t45.5 -77z" />
    <glyph glyph-name="f" unicode="f" horiz-adv-x="323" 
d="M28 31q0 -11 8 -19t20 -8t19.5 8t8.5 19l1 244h148q28 0 28 28q0 25 -28 25h-147q0 28 0.5 82.5t0.5 81.5q0 33 7 65.5t27.5 61t51.5 28.5q35 0 56.5 -41.5t27.5 -87.5l1 -7l55 8v7q-4 27 -13.5 55.5t-25.5 56.5t-42.5 46t-58.5 18q-42 0 -71.5 -20.5t-44 -54.5
t-20.5 -66.5t-6 -68.5z" />
    <glyph glyph-name="g" unicode="g" 
d="M324 316q-50 50 -121 50q-74 0 -124 -54t-50 -125q0 -72 50 -126t124 -54q70 0 120 50q0 -33 -1 -98t-1 -97q0 -61 -31 -108t-89 -47q-42 0 -70.5 29t-39.5 67t-11 79v6h-56v-6q0 -53 17 -103t58.5 -87.5t101.5 -37.5q83 0 129 63.5t46 144.5q0 78 2 233.5t2 232.5
q0 27 -28 27q-23 0 -27 -25q-1 -5 -1 -14zM84 187q0 50 34 87.5t85 37.5t84 -37.5t33 -87.5q0 -51 -33 -89.5t-84 -38.5t-85 38.5t-34 89.5z" />
    <glyph glyph-name="h" unicode="h" 
d="M321 190q0 -28 -0.5 -82t-0.5 -82q0 -10 8 -17.5t18 -7.5q26 0 28 26q1 8 1 51q2 72 2 108q0 69 -50 122.5t-123 53.5q-72 0 -123 -48l-1 363q-2 26 -28 26q-12 0 -20 -7t-8 -19l4 -651q0 -11 8 -18.5t20 -7.5t20 7.5t7 18.5v166q-1 46 35.5 81.5t85.5 35.5
q47 0 82 -36.5t35 -82.5z" />
    <glyph glyph-name="i" unicode="i" horiz-adv-x="117" 
d="M60 305q-13 0 -21.5 8.5t-8.5 21.5t8.5 21.5t21.5 8.5q14 0 22 -8.5t8 -21.5t-8.5 -21.5t-21.5 -8.5zM61 292q12 0 19.5 -7.5t7.5 -17.5l-2 -240q-2 -25 -27 -25q-12 0 -20 7.5t-8 17.5q0 37 1 109.5t1 108.5v22q0 10 8 17.5t20 7.5z" />
    <glyph glyph-name="j" unicode="j" horiz-adv-x="406" 
d="M376 -149l4 516h-256q-12 0 -20 -8t-8 -19t8 -19t20 -8h200l-4 -462q0 -58 -31.5 -101.5t-87.5 -43.5q-60 0 -91 50t-31 114v7h-55v-7q0 -52 17.5 -100t59.5 -83t100 -35q82 0 128 59.5t47 139.5z" />
    <glyph glyph-name="k" unicode="k" horiz-adv-x="342" 
d="M80 678q-1 11 -8.5 19t-19.5 8t-20 -8t-8 -19l4 -655q0 -11 8 -19t20 -8t20 8t7 19v105q14 -10 102 -67q103 -63 108 -63q11 0 19 8t8 19q0 6 -1 8l-2 5l-1 3l-2 1h-1l-1 1l-3 3q-9 7 -50 35q-7 4 -25.5 15t-27.5 16l-107 69l209 140q12 9 12 21q0 10 -8 19t-19 9
q-6 0 -16 -5q-14 -8 -38 -24.5t-29 -19.5l-128 -86z" />
    <glyph glyph-name="l" unicode="l" horiz-adv-x="115" 
d="M54 2q12 0 20 8t8 19v654q0 11 -8.5 18.5t-19.5 7.5t-19.5 -7.5t-8.5 -18.5v-654q0 -11 8 -19t20 -8z" />
    <glyph glyph-name="m" unicode="m" horiz-adv-x="699" 
d="M619 191q0 -27 -1 -81.5t-1 -82.5q0 -12 7.5 -19.5t20.5 -7.5q23 0 27 27v15v18v15q2 76 2 114q0 70 -50.5 123t-123.5 53q-46 0 -85 -22t-64 -60q-23 38 -61.5 60.5t-84.5 22.5q-68 0 -121 -48q1 10 1 29q0 10 -8 18t-19 8q-12 0 -20 -7.5t-8 -18.5l-4 -320
q0 -11 7.5 -18.5t19.5 -7.5q27 0 29 26l2 161q0 51 34.5 87.5t86.5 36.5q49 0 83 -36.5t34 -83.5q0 -27 -0.5 -81.5t-0.5 -82.5q0 -11 7.5 -19t19.5 -8t20 7.5t8 19.5l2 159q1 51 36 87.5t86 36.5q48 0 83.5 -36.5t35.5 -83.5z" />
    <glyph glyph-name="n" unicode="n" 
d="M207 308q48 0 82.5 -36.5t34.5 -83.5q0 -26 -0.5 -79t-0.5 -80q0 -11 7.5 -19t19.5 -8q21 0 27 20q2 6 2 16v14q0 22 1 67t1 67q0 68 -51.5 121t-122.5 53q-70 0 -120 -48v29q0 11 -7.5 19t-19.5 8t-20 -8t-8 -19l-4 -312q0 -11 8 -19t20 -8t19.5 8t8.5 19l2 154
q0 50 35 87.5t86 37.5z" />
    <glyph glyph-name="o" unicode="o" horiz-adv-x="388" 
d="M19 190q0 -71 50.5 -126t124.5 -55t123.5 55t49.5 126t-49.5 125t-123.5 54t-124.5 -54.5t-50.5 -124.5zM75 190q0 49 34.5 87t84.5 38t84 -37.5t34 -87.5q0 -51 -33.5 -90t-84.5 -39q-52 0 -85.5 39t-33.5 90z" />
    <glyph glyph-name="p" unicode="p" horiz-adv-x="397" 
d="M81 57q49 -51 122 -51t123 54.5t50 125.5t-49.5 125.5t-123.5 54.5t-123 -54v35q0 11 -8 19t-20 8t-20 -8t-8 -19l4 -668q0 -11 8 -19t20 -8t20 8t7 19zM84 186q0 51 33.5 88.5t85.5 37.5q51 0 84 -37.5t33 -88.5t-33 -89t-84 -38q-52 0 -85.5 37.5t-33.5 89.5z" />
    <glyph glyph-name="q" unicode="q" 
d="M320 342v-35q-48 53 -121 53q-76 0 -125.5 -53.5t-49.5 -125.5q0 -73 49.5 -126.5t125.5 -53.5q71 0 120 51l-2 -379q-1 -11 7.5 -19t19.5 -8q12 0 20 8t8 19q0 111 2 334t2 335q0 11 -8 18.5t-20 7.5q-11 0 -19.5 -7.5t-8.5 -18.5zM80 181q0 51 33.5 88.5t85.5 37.5
q50 0 83.5 -38t33.5 -88q0 -51 -33.5 -89t-83.5 -38q-52 0 -85.5 38t-33.5 89z" />
    <glyph glyph-name="r" unicode="r" horiz-adv-x="242" 
d="M82 183q1 56 37.5 90.5t95.5 34.5h7v52h-7q-83 0 -132 -48v29q1 11 -7.5 19t-19.5 8q-12 0 -20 -8t-8 -19l-4 -315q0 -11 8 -19t20 -8t19.5 8t8.5 19z" />
    <glyph glyph-name="s" unicode="s" horiz-adv-x="342" 
d="M56 2q26 0 77 -0.5t77 -0.5q46 0 79.5 29.5t33.5 73.5q0 45 -33 75.5t-81 30.5q-7 0 -22 -0.5t-23 -0.5q-30 0 -52.5 13t-22.5 37t19 37.5t47 14.5l96 2q12 0 20 8t8 19q0 12 -8 20t-20 7l-98 -2q-47 -1 -83 -31t-36 -75q0 -46 37 -75t85 -29q9 0 27.5 0.5t27.5 0.5
q22 0 39.5 -15.5t17.5 -36.5q0 -18 -17 -34.5t-36 -15.5l-159 1q-28 0 -28 -26q0 -11 8 -19t20 -8z" />
    <glyph glyph-name="t" unicode="t" horiz-adv-x="334" 
d="M306 57q-59 0 -96.5 34t-36.5 90l2 298h57q12 0 20 8t8 19q0 12 -8 19.5t-20 7.5h-57l1 143q0 12 -8 19.5t-20 7.5t-20 -7.5t-8 -19.5l-1 -143h-72q-13 0 -20.5 -7.5t-7.5 -19.5q0 -11 8 -19t20 -8h72q-2 -198 -2 -296q0 -72 50 -125.5t125 -53.5h21v53h-7z" />
    <glyph glyph-name="u" unicode="u" horiz-adv-x="406" 
d="M320 30q2 -32 28 -32q13 0 20.5 7.5t7.5 19.5l5 318q0 11 -8 19t-20 8q-11 0 -19 -8t-9 -19l-2 -158q-2 -53 -35 -90t-85 -37q-49 0 -84 37.5t-35 85.5q0 27 1 81t1 81q0 11 -8.5 18.5t-19.5 7.5q-24 0 -28 -25q-1 -8 -1 -49q-1 -36 -1 -108t49.5 -127t125.5 -55
q67 0 117 47v-22z" />
    <glyph glyph-name="v" unicode="v" horiz-adv-x="419" 
d="M203 86l-141 269q-9 14 -23 14q-12 0 -20.5 -8t-8.5 -19q0 -6 2 -9q0 -1 1 -2l1.5 -1.5t0.5 -1.5t2 -3l20 -39q17 -32 50.5 -96.5t50.5 -96.5q37 -74 40 -79q11 -15 25 -15q16 0 25 15q8 14 14 26q2 6 6.5 15.5t5.5 11.5l59 117q3 7 41 81q36 74 36 78q0 11 -8.5 19
t-20.5 8q-15 0 -23 -14l-48 -96q-42 -87 -87 -174z" />
    <glyph glyph-name="w" unicode="w" horiz-adv-x="437" 
d="M405 343q0 11 -8 19t-20 8t-20 -8t-8 -19l-2 -242l-112 131q-9 9 -22 9t-20 -9l-113 -130v241q-1 11 -8.5 19t-19.5 8t-20 -8t-8 -19l2 -314q0 -11 8 -19t20 -8q14 0 21 9l138 162q103 -119 123 -140q4 -4 12 -14q9 -9 14 -13q8 -4 12 -4q12 0 20 8t8 19z" />
    <glyph glyph-name="x" unicode="x" horiz-adv-x="428" 
d="M374 0q11 0 19.5 8t8.5 19t-8 19l-143 140l143 139q8 10 8 20q0 11 -8.5 19t-19.5 8q-12 0 -20 -8l-142 -141l-140 141q-8 8 -20 8t-20 -8t-8 -19q0 -10 8 -20l143 -139l-143 -140q-8 -8 -8 -19t8 -19t20 -8t20 8l140 140l142 -140q10 -8 20 -8z" />
    <glyph glyph-name="y" unicode="y" horiz-adv-x="410" 
d="M84 -107h-56v-6q0 -54 17 -104t58.5 -88.5t101.5 -38.5q84 0 130 65t46 147q0 212 2 318t2 158q0 11 -8 19t-20 8t-19 -8t-8 -18q-3 -11 -1 -25v-24q0 -73 -2 -109q-2 -52 -35 -89t-85 -37q-47 0 -83 37.5t-36 84.5q0 26 1 79.5t1 80.5q1 10 -6.5 18.5t-19.5 8.5
q-24 0 -28 -26q-1 -8 -1 -49q-2 -74 -2 -110q0 -71 50.5 -123.5t123.5 -52.5q70 0 120 47q0 -31 -1 -93.5t-1 -94.5q0 -62 -31 -110.5t-89 -48.5q-60 0 -90.5 55.5t-30.5 122.5v6z" />
    <glyph glyph-name="z" unicode="z" horiz-adv-x="428" 
d="M380 0q12 0 20 8t8 19q0 10 -8.5 18.5t-19.5 8.5l-264 1l278 267l4 3q0 1 2 2.5t2 2.5q4 5 4 14q0 10 -7.5 18.5t-18.5 8.5l-328 2q-12 0 -20 -8t-8 -19q0 -12 8 -19.5t20 -7.5l258 -2q-79 -73 -279 -271l-3 -3q-2 -2 -3 -4q-2 -3 -2 -10q0 -10 9.5 -18.5t20.5 -8.5z" />
    <glyph glyph-name="braceleft" unicode="{" horiz-adv-x="369" 
d="M156 54q0 47 1.5 142.5t1.5 143.5q0 19 -8 31q8 11 8 25q0 173 1 259h131q12 0 20 8t8 19t-8 19t-20 8h-157q-11 0 -20.5 -7.5t-9.5 -18.5v-284q-1 -1 -2 -1h-7h-11t-10 -1q-34 -2 -34 -28q0 -21 31 -26q3 0 10.5 -0.5t10.5 -1.5q8 0 10 -1q0 -52 -0.5 -156t-0.5 -157
q0 -10 7 -18.5t19 -8.5h159q12 0 20 8t8 19t-8.5 19t-19.5 8h-130z" />
    <glyph glyph-name="braceright" unicode="}" horiz-adv-x="359" 
d="M263 396q2 10 2 14q0 23 -1 69t-1 68v90q0 5 0.5 14t0.5 13q0 16 -5 26q-7 16 -26 16h-155q-12 0 -20 -8t-8 -19t8 -19t20 -8h131q2 -174 2 -262q0 -10 5 -22q-5 -9 -5 -23q0 -99 2 -293h-130q-13 0 -20.5 -8t-7.5 -20t7.5 -19.5t20.5 -7.5h154q13 0 21 8t8 19
q0 52 -0.5 156.5t-0.5 156.5q7 0 11 1q15 0 22 1q31 4 31 27q0 24 -30 28q-6 1 -20 1q-12 0 -16 1z" />
    <glyph glyph-name="uni00A0" unicode="&#xa0;" horiz-adv-x="378" 
 />
    <glyph glyph-name="cent" unicode="&#xa2;" horiz-adv-x="367" 
d="M362 326l-56 12v-7q-4 -35 -31 -63t-63 -36v252q48 -11 79 -58l7 -12l47 28l-4 6q-54 80 -129 90v143q0 10 -7 18.5t-18 8.5q-13 0 -20.5 -8t-7.5 -19v-143q-66 -10 -107.5 -62.5t-41.5 -116.5q0 -65 42 -117t107 -63v-152q0 -12 7.5 -19.5t20.5 -7.5q12 0 18.5 8t6.5 19
v151q110 15 148 141zM159 483v-251q-41 11 -67 48t-26 79t26 78t67 46z" />
    <glyph glyph-name="copyright" unicode="&#xa9;" horiz-adv-x="774" 
d="M15 350q0 -146 108.5 -249t261.5 -103t262 102.5t109 249.5q0 145 -109.5 248.5t-261.5 103.5t-261 -103.5t-109 -248.5zM71 350q0 123 92.5 210t221.5 87t222 -87t93 -210q0 -124 -92.5 -211t-222.5 -87t-222 87t-92 211zM561 315l-52 12l-2 -6q-32 -103 -120 -103
q-52 0 -87 39.5t-35 90.5q0 50 35.5 89.5t86.5 39.5q64 0 109 -68l4 -6l44 28l-4 6q-60 93 -153 93q-77 0 -127.5 -54.5t-50.5 -127.5q0 -72 51.5 -127t126.5 -55q64 0 108.5 38t61.5 98z" />
    <glyph glyph-name="guillemotleft" unicode="&#xab;" horiz-adv-x="504" 
d="M306 154q0 -8 -6.5 -14t-14.5 -6q-3 0 -5 1q-1 1 -2 1q-2 1 -3 1q-2 1 -6.5 4t-6.5 4q-11 7 -37 25l-60 42l-128 88l-3 2q-8 5 -8 14q0 10 10 18q12 10 19 15q14 8 20 12l80 54q28 19 84 59q4 2 16 10.5t19 12.5q4 3 11 3q8 0 14.5 -6t6.5 -14q0 -9 -6 -13
q-4 -4 -105 -74q-30 -21 -113 -76l214 -145q10 -8 10 -18zM478 154q0 -8 -6.5 -14t-14.5 -6q-3 0 -5 1q-1 1 -2 1q-2 1 -3 1q-2 1 -6.5 4t-6.5 4q-11 7 -37 25l-60 42l-128 88l-3 2q-8 5 -8 14q0 10 10 18q12 10 19 15q4 3 11 6.5t9 5.5l80 54q28 19 84 59q6 4 17.5 11.5
t17.5 11.5q4 3 11 3q8 0 14.5 -6t6.5 -14q0 -9 -6 -13q-4 -4 -105 -74q-30 -21 -113 -76l214 -145q10 -8 10 -18z" />
    <glyph glyph-name="uni00AD" unicode="&#xad;" horiz-adv-x="234" 
d="M121 326q-27 1 -80 1q-17 0 -17 21q0 20 13 20q26 0 79 -1.5t80 -1.5q6 0 9.5 -0.5t7 -5.5t3.5 -15q0 -21 -13 -21t-41 1.5t-41 1.5z" />
    <glyph glyph-name="registered" unicode="&#xae;" horiz-adv-x="774" 
d="M385 702q-153 0 -261.5 -103t-108.5 -249t108.5 -249t261.5 -103t262 102.5t109 249.5q0 146 -109 249t-262 103zM385 52q-129 0 -221.5 87.5t-92.5 210.5t92.5 210t221.5 87q130 0 222.5 -86.5t92.5 -210.5q0 -123 -93 -210.5t-222 -87.5zM518 189l-138 79h34
q59 0 98.5 41.5t39.5 98.5t-40.5 99t-100.5 43l-123 2q-9 0 -18 -6t-9 -16l-3 -363q0 -11 8.5 -18.5t19.5 -7.5q10 0 17 6t7 16v88q9 -5 24 -14t37 -21.5t36 -20.5q94 -53 100 -53q10 0 19 6t9 17q0 15 -17 24zM415 500q36 0 61.5 -26.5t25.5 -61.5q0 -41 -27.5 -66.5
t-70.5 -25.5q-8 0 -25 0.5t-26 0.5h-41v180q18 0 52 -0.5t51 -0.5z" />
    <glyph glyph-name="guillemotright" unicode="&#xbb;" horiz-adv-x="504" 
d="M26 154q0 10 10 18l214 145q-83 55 -113 76q-101 70 -105 74q-6 4 -6 13q0 8 6.5 14t14.5 6q7 0 11 -3q5 -4 17 -11.5t18 -11.5q56 -40 84 -59l80 -54q2 -2 9 -5.5t11 -6.5q7 -5 19 -15q10 -8 10 -18q0 -9 -8 -14l-3 -2l-128 -88l-60 -42q-26 -18 -37 -25q-2 -1 -6.5 -4
t-6.5 -4q-1 0 -2.5 -0.5t-2.5 -1.5q-2 -1 -5 -1q-8 0 -14.5 6t-6.5 14zM198 154q0 10 10 18l214 145q-83 55 -113 76q-101 70 -105 74q-6 4 -6 13q0 8 6.5 14t14.5 6q7 0 11 -3q7 -4 19 -12.5t16 -10.5q56 -40 84 -59l80 -54q6 -4 20 -12q7 -5 19 -15q10 -8 10 -18
q0 -9 -8 -14l-3 -2l-128 -88l-60 -42q-26 -18 -37 -25q-2 -1 -6.5 -4t-6.5 -4q-1 0 -2.5 -0.5t-2.5 -1.5q-2 -1 -5 -1q-8 0 -14.5 6t-6.5 14z" />
    <glyph glyph-name="quoteleft" unicode="&#x2018;" horiz-adv-x="88" 
d="M76 626l-34 -29l-4 7q-1 2 -8 12.5t-9 15.5q-9 20 -9 35q0 36 28 36q12 0 19.5 -7.5t7.5 -18.5q0 -16 -11 -24q2 -9 15 -22z" />
    <glyph glyph-name="quoteright" unicode="&#x2019;" horiz-adv-x="88" 
d="M12 626l5 5q13 13 15 22q-11 8 -11 24q0 11 7.5 18.5t19.5 7.5q28 0 28 -36q0 -15 -9 -35q-2 -5 -9 -15.5t-8 -12.5l-4 -7z" />
    <glyph glyph-name="quotedblleft" unicode="&#x201c;" horiz-adv-x="197" 
d="M76 626l-34 -29l-4 7q-1 2 -8 12.5t-9 15.5q-9 20 -9 35q0 36 28 36q12 0 19.5 -7.5t7.5 -18.5q0 -16 -11 -24q2 -9 15 -22zM157 626l-34 -29l-4 7q-1 2 -8 12.5t-9 15.5q-9 20 -9 35q0 36 28 36q12 0 19.5 -7.5t7.5 -18.5q0 -16 -11 -24q2 -9 15 -22z" />
    <glyph glyph-name="quotedblright" unicode="&#x201d;" horiz-adv-x="197" 
d="M12 626l5 5q13 13 15 22q-11 8 -11 24q0 11 7.5 18.5t19.5 7.5q28 0 28 -36q0 -15 -9 -35q-2 -5 -9 -15.5t-8 -12.5l-4 -7zM93 626l5 5q13 13 15 22q-11 8 -11 24q0 11 7.5 18.5t19.5 7.5q28 0 28 -36q0 -15 -9 -35q-2 -5 -9 -15.5t-8 -12.5l-4 -7z" />
    <glyph glyph-name="Euro" unicode="&#x20ac;" horiz-adv-x="455" 
d="M140 396q15 109 86 181t182 72h7v54h-21q-126 0 -210.5 -92.5t-98.5 -215.5h-34q-12 0 -20 -7.5t-8 -19.5q0 -24 29 -26q7 -1 22 -1q3 1 9 1v-15h-10q-14 0 -21 -1q-29 -4 -29 -26q0 -28 28 -28q7 0 20 0.5t19 0.5q22 -112 105 -192.5t199 -80.5h21v54h-7
q-101 0 -170.5 61.5t-92.5 159.5h104h40q27 0 41 2q23 7 23 28q0 25 -28 25t-59 -0.5t-68.5 -1.5t-58.5 -1l-2 16h137q37 0 55 3q24 4 24 25q0 28 -28 28q-92 0 -185 -3z" />
    <glyph glyph-name="trademark" unicode="&#x2122;" horiz-adv-x="799" 
d="M387 647q0 -36 -1 -101t-1.5 -118.5t-0.5 -101.5q0 -10 8 -16t18 -6t17 6t7 16l3 275q4 -5 15.5 -19t22.5 -28t22 -26q74 -89 89 -93l2 -1l2 1q2 0 4.5 2t6.5 5t7.5 6.5l9 9t9.5 10t10.5 12t10.5 12t11 13t11 12.5q12 15 34 42t30 37q0 -44 -1 -133.5t-1 -134.5
q0 -10 7.5 -17t18.5 -7q25 0 25 22q0 58 2 174t2 174q0 11 -8 17t-18 6q-12 0 -21 -10l-152 -183l-155 186q-8 10 -19 10q-6 0 -12 -3l-2 1q-4 2 -8 2h-355q-24 0 -24 -27q0 -26 24 -26h146l-3 -315q-2 -26 26 -26q26 0 26 21l2 320h153z" />
    <glyph glyph-name="_FSHallmark" horiz-adv-x="754" 
d="M701 529h-630v74h630v-74zM619 388q0 13 -11 24l-8 6q-2 0 -5 2t-4 2l-18 6h-9q-20 0 -36 -9q-16 -10 -16 -22q0 -20 12 -29.5t36 -14.5l27 -6l12 -3l11 -3q8 -3 22 -5q1 0 4.5 -1t5.5 -1l9 -3q1 -1 4 -2t4 -2q2 -1 4.5 -2.5t3.5 -1.5q15 -9 24 -21q7 -14 9 -33
q1 -21 -8 -38q-35 -56 -127 -56q-39 0 -74 16t-52 48q-13 20 -13 49l73 -1q0 -3 3 -11q3 -20 30 -33q13 -7 36 -7q25 0 40 9q15 7 15 19q0 22 -60 36q-56 14 -92 33q-38 20 -38 63q0 61 80 87q24 6 52 6q94 0 122 -64q8 -22 8 -37h-76zM305 277h-151v-102h-83v313h265v-71
h-182v-70h151v-70zM329 213q0 16 10.5 26.5t27.5 10.5q16 0 30 -11q12 -11 12 -26t-12 -26q-13 -10 -30 -10q-15 0 -26 11q-12 11 -12 25zM700 61h-631v75h631v-75z" />
    <glyph glyph-name="_Fontastica" horiz-adv-x="754" 
d="M218 339h295v-79h-295v-147h-87q-1 1 -1 4v510h382v-78h-294v-210zM273 192h296v210h-296v79h296v146h87v-513h-383v78zM569 63q-5 -3 -5 -8q0 -7 4 -11q3 -4 9 -4q7 0 14 4l4 -4q-6 -9 -18 -9q-8 0 -16 5q-5 6 -7 16q-1 10 6 17q8 8 17 8q10 0 18 -8l-4 -6q-5 5 -12 5
h-2q-6 -2 -8 -5zM162 49h-20v-17h-11v44h32v-8h-21v-12h20v-7zM203 76q15 0 22 -12q6 -8 2 -20q-4 -11 -19 -13h-2q-1 -1 -2 -1l-2 -1q-6 0 -9 3q-14 6 -14 19q0 11 7 18q6 7 17 7zM279 46v30h9v-44h-3q-1 -1 -3 -1t-7 5l-8 12q-1 1 -2.5 3.5t-2.5 3.5l-4 4v-27h-10v44h8
q4 -2 5 -6l5 -5q4 -4 5 -6t2.5 -4t1.5 -3zM330 32h-9v36h-14v8h37v-8h-14v-36zM444 55q9 -1 9 -10q1 -8 -8 -13q-1 -1 -8 -1q-14 0 -21 7q1 1 1 2l1 1q0 2 1 3l14 -4h6q3 3 3 2q0 8 -10 9q-1 0 -2 1t-4 1q-7 1 -7 10q-1 7 6 11q8 2 10 2q11 0 18 -4l-4 -8q-1 1 -3 1
q-1 0 -2 1t-3 1q-1 0 -2 1h-6q-3 0 -3 -3q-2 -1 3 -6q1 0 3.5 -0.5t3.5 -1.5q0 -1 2 -1t2 -1zM492 32h-10v36h-14v8h38v-8h-14v-36zM524 76h11v-44h-11v44zM640 76l9 -21q3 -8 5 -12q2 -8 5 -11h-10l-4 9h-21l-4 -9h-10q10 20 18 44h12zM363 32h-9l18 42h10q2 -5 5 -10
q5 -8 9 -21q0 -1 1 -3t1 -3t0.5 -2.5t1.5 -2.5h-10q-1 1 -1 4l-2 5h-20q-1 -1 -1 -5q-1 -1 -1 -2zM216 54q0 6 -3 10q-4 4 -11 4q-1 -1 -3 -1q-4 -1 -8 -7t-1 -11q3 -10 13 -10q3 0 4 1q9 2 9 13v1zM369 49h15q-5 5 -5 12q-1 1 -1 2t-1 2zM627 49h14q-1 1 -1 4q-1 1 -1 2
t-1 2t-1 2t-1 2t-1 2t-1 2z" />
    </font>
</defs>
</svg>
